<?xml version="1.0" encoding="UTF-8"?><svg id="a" xmlns="http://www.w3.org/2000/svg" viewBox="0 0 210 210"><defs><style>.b{fill:none;}</style></defs><circle class="b" cx="90.4" cy="60.8" r="5"/><path class="b" d="M102,95.1c-6.3.6-10.4,4.2-10.8,10.7.4,7.6-.6,15.8,0,23.4,1.1,14.8,25.3,13.7,26.3.8.6-8.2-.5-17.2,0-25.5-1.1-8-8.4-10.1-15.5-9.4ZM108.1,128.5c-.4,3.5-7,3.5-7.3,0v-22.7c.4-1.4,1.7-2,3.1-2.2,2.2-.2,4,.5,4.2,3,.6,7-.5,14.8,0,21.9Z"/><path class="b" d="M108.1,60.1c0-9.8-8-17.8-17.8-17.8s-17.8,8-17.8,17.8,3.3,12,8.9,15.4c.3.2.7.2,1,.2.3,0,.6-.3.8-.6l2.7-4.7c.2-.3.2-.7.1-1,0-.3-.3-.6-.6-.8-2.9-1.7-4.8-4.9-4.8-8.2,0-5.3,4.3-9.6,9.6-9.6s9.6,4.3,9.6,9.6-1.8,6.7-4.8,8.1c-.3.2-.6.5-.7.8-.1.4,0,.7.1,1.1l2.7,4.7c.2.3.5.5.8.6.3,0,.7,0,1-.2,5.6-3.4,8.9-9.1,8.9-15.4Z"/><path class="b" d="M138,130.5c-2.3.6-5.5.9-6.4-1.8v-22.2c.8-3,6.9-2.6,9.2-2.3,1.6.2,3.2.7,4.7,1.2v-9c-8.2-2.3-22-2.4-23.6,8.5.5,8.1-.6,16.9,0,24.8.8,10.4,13.9,10.9,21.7,8.5,1.3-.4,2.5-.8,3.6-1.6v-21h-9.2v14.8Z"/><polygon class="b" points="67.7 95.6 67.7 139 88.9 139 88.9 131.1 77.3 131.1 77.3 95.6 67.7 95.6"/><path class="b" d="M74.3,88.7c.6.4,1.4.1,1.8-.5l3.2-5.4c.2-.3.2-.7.1-1,0-.3-.3-.6-.6-.8-7.4-4.3-12-12.2-12-20.6,0-13.2,10.7-23.9,23.9-23.9s23.9,10.7,23.9,23.9-4.5,16.2-12,20.6c-.3.2-.5.5-.6.8,0,.3,0,.7.1,1l3.2,5.4c.4.6,1.2.8,1.8.5,10.1-5.7,16.4-16.6,16.4-28.3,0-18.1-14.7-32.8-32.9-32.8s-32.9,14.7-32.9,32.8,6.3,22.5,16.4,28.3Z"/><path class="b" d="M36.8,139h17.6c2.5,0,5.9-2.1,7.2-4.3,1.8-3.1,1.9-12.1,0-15.2-.8-1.4-1.9-1.9-3.3-2.5,2.9-.9,4-3.9,4.2-6.7.5-6.8-.3-13.9-8.5-14.7h-17.2v43.4ZM46.4,103.6h4.7c.7,0,1.7,1,1.9,1.7.2.8.2,5,0,5.9-.2.8-1.2,1.8-1.9,1.8h-4.7v-9.4ZM46.4,121.3c1.5.1,3.3-.2,4.7,0,.6,0,1.7.6,2,1.1.6.9.6,5.7.3,6.8-.2.7-1.1,1.9-1.9,1.9h-5.1v-9.8Z"/><path d="M202.9,89.3c0-5.6,0-8.5,0-13.5-.3-12.9-5.9-25.1-14.7-33.8h-.1c-7.8-7.9-15.6-15.7-23.5-23.6-8.9-10.2-22-16.6-36.8-16.6h-18.8c-21.9,0-51.4,0-56.5,0-.7,0-1.4,0-2.1,0-.2,0-.5,0-.7,0-.7,0-1.3,0-2,.1-.1,0-.3,0-.4,0C22.3,4.3,2.9,25.1,2.9,50.8v76.1c0,15,6.6,28.4,17.2,37.3,7.3,7.3,14.6,14.6,21.9,21.9,9.3,10,22.8,15.9,36.6,15.8,17.3,0,49.3,0,66,0,4.2,0,6.3,0,10.2,0,25.3-.3,46.5-20.8,48-45.5.4-9.2,0-43.2.2-67ZM147.1,136.6c-1.1.8-2.3,1.2-3.6,1.6-7.7,2.4-20.8,1.9-21.7-8.5-.6-8,.5-16.8,0-24.8,1.6-10.8,15.4-10.7,23.6-8.5v9c-1.6-.5-3.1-1-4.7-1.2-2.3-.3-8.4-.8-9.2,2.3v22.2c.9,2.7,4.1,2.4,6.4,1.8v-14.8h9.2v21ZM88.9,131.1v7.9h-21.3v-43.4h9.6v35.5h11.7ZM117.5,130c-1,12.8-25.2,13.9-26.3-.8-.6-7.5.4-15.8,0-23.4.4-6.5,4.5-10.1,10.8-10.7,7.1-.7,14.4,1.5,15.5,9.4-.5,8.3.7,17.3,0,25.5ZM90.4,65.8c-2.8,0-5-2.2-5-5s2.2-5,5-5,5,2.2,5,5-2.2,5-5,5ZM99.2,75.5c-.3.2-.7.2-1,.2-.3,0-.6-.3-.8-.6l-2.7-4.7c-.2-.3-.2-.7-.1-1.1.1-.4.4-.7.7-.8,2.9-1.5,4.8-4.6,4.8-8.1,0-5.3-4.3-9.6-9.6-9.6s-9.6,4.3-9.6,9.6,1.9,6.5,4.8,8.2c.3.2.5.5.6.8,0,.3,0,.7-.1,1l-2.7,4.7c-.2.3-.5.5-.8.6-.3,0-.7,0-1-.2-5.6-3.4-8.9-9.1-8.9-15.4,0-9.8,8-17.8,17.8-17.8s17.8,8,17.8,17.8-3.3,12-8.9,15.4ZM90.8,27.6c18.1,0,32.9,14.7,32.9,32.8s-6.3,22.5-16.4,28.3c-.6.3-1.5.1-1.8-.5l-3.2-5.4c-.2-.3-.2-.7-.1-1,0-.3.3-.6.6-.8,7.5-4.4,12-12.1,12-20.6,0-13.2-10.7-23.9-23.9-23.9s-23.9,10.7-23.9,23.9,4.6,16.3,12,20.6c.3.2.5.5.6.8,0,.3,0,.7-.1,1l-3.2,5.4c-.4.6-1.2.8-1.8.5-10.1-5.7-16.4-16.6-16.4-28.3,0-18.1,14.7-32.8,32.9-32.8ZM54,95.6c8.2.8,9,7.9,8.5,14.7-.2,2.8-1.3,5.8-4.2,6.7,1.4.7,2.4,1.2,3.3,2.5,1.9,3.1,1.8,12,0,15.2-1.2,2.2-4.7,4.3-7.2,4.3h-17.6v-43.4h17.2Z"/><path d="M53.4,129.3c.2-1.1.2-5.9-.3-6.8-.3-.5-1.4-1.1-2-1.1-1.4-.2-3.2.1-4.7,0v9.8h5.1c.8,0,1.7-1.1,1.9-1.9Z"/><path d="M108.1,106.6c-.2-2.4-2-3.1-4.2-3-1.4.1-2.7.7-3.1,2.2v22.7c.3,3.5,6.9,3.5,7.3,0-.4-7.1.6-14.9,0-21.9Z"/><path d="M53,111.1c.2-.9.2-5.1,0-5.9-.2-.7-1.2-1.7-1.9-1.7h-4.7v9.4h4.7c.8,0,1.8-1.1,1.9-1.8Z"/></svg>