<?xml version="1.0" encoding="UTF-8"?><svg id="a" xmlns="http://www.w3.org/2000/svg" viewBox="0 0 210 210"><defs><style>.b{fill:none;}</style></defs><path class="b" d="M89.8,83.9c-10,.8-11,19.9-.8,18.8,5.4-.5,7.2-7.6,7.1-12,0-3.9-2.1-7.2-6.4-6.8Z"/><path class="b" d="M130.2,13.3H57.7c-11.4,0-22.1,4.4-30.1,12.4-8,8-12.4,18.7-12.4,30.1v72.5c0,11.4,4.4,22.1,12.4,30.1,8,8,18.7,12.4,30.1,12.4h72.4c11.4,0,22.1-4.4,30.1-12.4,8-8,12.4-18.7,12.4-30.1V55.7c0-11.4-4.4-22.1-12.4-30.1-8-8-18.7-12.4-30.1-12.4ZM126.2,113.8c-7.6,5.3-20.6,6.7-26.7-1.6-.5-.7-.9-1.5-1.5-2.2-6.7,10-21.2,11-29.1,1.9-8.6-9.8-5.8-28.7,3.5-37.3,7.3-6.7,19-7.7,26.3-.5l.3-3.2h13.3l-2.8,23.2c-.4,4.8-.2,12.5,6.7,11.3,7-1.2,10.1-13.1,10.4-19,1-21.6-14.5-34-35.1-34s-42.4,16.5-43.1,41.1c-.8,27.5,20.3,45.9,47.3,43.5,9.8-.9,19.3-5.6,26.3-12.4l8.1,8.6c.1.1,0,.2,0,.3-.3.4-1.3,1.2-1.7,1.6-16.2,14.1-38,17.8-58.3,10.4-41.8-15.1-47.4-72.3-10.2-96,24.6-15.7,63.1-11.3,76.3,17.1,7.1,15.3,4.8,37.1-9.8,47.3Z"/><path d="M205,92.4c0-5.6,0-8.5,0-13.5-.3-12.9-5.9-25.1-14.7-33.8h-.1c-6.1-6.2-12.2-12.3-18.3-18.5-1.7-2.4-3.6-4.8-5.8-6.9-9.5-9.5-22.3-14.8-35.9-14.8H53.9c-.4,0-.9,0-1.3,0-.2,0-.5,0-.7,0-.7,0-1.3,0-2,.1-.1,0-.3,0-.4,0C24.4,7.4,5,28.2,5,53.9v76.1c0,15,6.6,28.4,17.2,37.3,7.3,7.3,14.6,14.6,21.9,21.9,9.3,10,22.8,15.9,36.6,15.8,17.3,0,49.3,0,66,0,4.2,0,6.3,0,10.2,0,25.3-.3,46.5-20.8,48-45.5.4-9.2,0-43.2.2-67ZM172.6,128.2c0,11.4-4.4,22.1-12.4,30.1-8,8-18.7,12.4-30.1,12.4H57.7c-11.4,0-22.1-4.4-30.1-12.4-8-8-12.4-18.7-12.4-30.1V55.7c0-11.4,4.4-22.1,12.4-30.1,8-8,18.7-12.4,30.1-12.4h72.4c11.4,0,22.1,4.4,30.1,12.4,8,8,12.4,18.7,12.4,30.1v72.5Z"/><path d="M59.8,49.4c-37.2,23.7-31.6,80.9,10.2,96,20.2,7.3,42.1,3.7,58.3-10.4.4-.4,1.4-1.2,1.7-1.6,0-.1.2-.2,0-.3l-8.1-8.6c-7,6.8-16.4,11.6-26.3,12.4-27,2.4-48.1-16-47.3-43.5.7-24.7,18.6-41.1,43.1-41.1s36.2,12.4,35.1,34c-.3,6-3.4,17.8-10.4,19-7,1.2-7.1-6.5-6.7-11.3l2.8-23.2h-13.3l-.3,3.2c-7.3-7.2-19-6.2-26.3.5-9.2,8.5-12,27.4-3.5,37.3,8,9.1,22.5,8.1,29.1-1.9.6.7,1,1.5,1.5,2.2,6.1,8.3,19.1,7,26.7,1.6,14.5-10.2,16.9-32,9.8-47.3-13.1-28.4-51.7-32.8-76.3-17.1ZM89.1,102.8c-10.2,1-9.3-18,.8-18.8,4.2-.3,6.3,2.9,6.4,6.8,0,4.5-1.8,11.5-7.1,12Z"/></svg>