<?xml version="1.0" encoding="UTF-8"?><svg id="a" xmlns="http://www.w3.org/2000/svg" viewBox="0 0 200 200"><path d="M118.1,79.5l-3.2,26.6c-.4,5.5-.3,14.4,7.7,13,8-1.4,11.7-15,12-21.9,1.2-24.9-16.7-39.1-40.4-39.1-28.1,0-48.8,18.9-49.6,47.3-.9,31.6,23.4,52.8,54.4,50,11.3-1,22.2-6.4,30.2-14.3l9.3,9.8c.1.2,0,.2,0,.3-.3.5-1.5,1.4-2,1.8-18.7,16.3-43.8,20.4-67.1,12-48.1-17.4-54.5-83.1-11.7-110.4,28.3-18,72.6-13,87.8,19.7,8.2,17.7,5.5,42.7-11.3,54.4-8.8,6.1-23.7,7.7-30.7-1.9s-1-1.8-1.7-2.5c-7.7,11.5-24.3,12.7-33.5,2.2-9.9-11.3-6.6-33,4-42.8s21.9-8.9,30.3-.6l.3-3.6h15.2ZM92.3,94.5c-11.5.9-12.6,22.8-.9,21.7,6.2-.6,8.2-8.7,8.2-13.8s-2.4-8.2-7.3-7.8Z"/></svg>