<?xml version="1.0" encoding="UTF-8"?><svg id="a" xmlns="http://www.w3.org/2000/svg" viewBox="0 0 210 210"><defs><style>.b{fill:none;}</style></defs><path class="b" d="M79.2,43.6c-4.6,4.2-6.8,11.7-6.8,22.5v3.4h-7.5c-1.5,0-2.3,3.4-2.3,10.2s.8,10.2,2.3,10.2h7.5v54.6c0,1.2,4.5,1.8,13.6,1.8s13.6-.6,13.6-1.8v-54.5h9.8c2.4,0,3.5-3.6,3.5-10.8s-.9-9.8-2.8-9.8h-12.8v-3.2c0-5.3,2-8,6-8s7.3,1.1,10.8,3.2c1.2-.6,2.7-3,4.5-7.2h0c1.7-4.2,2.6-7.3,2.6-9.2s-.4-3-1.2-3.3c-6.3-3-13.5-4.5-21.7-4.5s-14.6,2.1-19.2,6.2Z"/><path d="M205,92.4c0-5.6,0-8.5,0-13.5-.3-12.9-5.9-25.1-14.7-33.8h-.1c-7.8-7.9-15.6-15.7-23.5-23.6-8.9-10.2-22-16.6-36.8-16.6H53.9c-.4,0-.9,0-1.3,0-.2,0-.5,0-.7,0-.7,0-1.3,0-2,.1-.1,0-.3,0-.4,0C24.4,7.4,5,28.2,5,53.9v76.1c0,15,6.6,28.4,17.2,37.3,7.3,7.3,14.6,14.6,21.9,21.9,9.3,10,22.8,15.9,36.6,15.8,17.3,0,49.3,0,66,0,4.2,0,6.3,0,10.2,0,25.3-.3,46.5-20.8,48-45.5.4-9.2,0-43.2.2-67ZM120.1,41.9c.8.3,1.2,1.4,1.2,3.3s-.9,5-2.6,9.2h0c-1.7,4.2-3.2,6.6-4.5,7.2-3.5-2.2-7.1-3.2-10.8-3.2s-6,2.7-6,8v3.2h12.8c1.8,0,2.8,3.3,2.8,9.8s-1.2,10.8-3.5,10.8h-9.8v54.5c0,1.2-4.5,1.8-13.6,1.8s-13.6-.6-13.6-1.8v-54.6h-7.5c-1.5,0-2.3-3.4-2.3-10.2s.8-10.2,2.3-10.2h7.5v-3.4c0-10.9,2.3-18.4,6.8-22.5,4.6-4.2,10.9-6.2,19.2-6.2s15.4,1.5,21.7,4.5Z"/></svg>