<?xml version="1.0" encoding="UTF-8"?><svg id="a" xmlns="http://www.w3.org/2000/svg" viewBox="0 0 210 210"><defs><style>.b{fill:none;}</style></defs><path class="b" d="M128.9,102.5h0s0,0,0,0c0,0,0,0,0,0Z"/><path class="b" d="M127.8,167.4c10.6,0,20.5-4.1,28-11.5,7.4-7.4,11.5-17.3,11.5-28V52.9c0-10.6-4.1-20.5-11.5-28-5.8-5.8-13.2-9.6-21.2-10.9-1.2,0-2.4-.2-3.6-.2H58.5c-11.4,0-22.1,4.4-30.1,12.4-8,8-12.4,18.7-12.4,30.1v72.5c0,11.4,4.4,22.1,12.4,30.1.5.5,1,1,1.6,1.5,6.6,4.6,14.5,7.1,22.8,7.1h75.1ZM51.6,102.3c.2,0,.3-.2.5-.2l20.2-11.7-20.7-12h0s0,0,0,0h0s0,0,0,0c-1.1-.7-1.4-2.1-.8-3.2l6.6-11.4h0s0,0,0,0c.7-1.1,2.1-1.5,3.2-.9h0s20.7,12,20.7,12v-23.9h0c0-1.3,1.1-2.3,2.3-2.3h13.1s0,0,0,0c1.3,0,2.3,1,2.4,2.3h0v23.9l20.7-12h0c1.1-.6,2.5-.2,3.2.9h0l6.6,11.4h0s0,0,0,0c.7,1.1.3,2.6-.8,3.2h0s-20.7,11.9-20.7,11.9l20.4,11.8h0c0,0,.1,0,.2,0h0s0,0,0,0c.9.6,1.2,1.8.8,2.8h0s-.2.4-.2.4h0s-6.6,11.4-6.6,11.4c-.7,1.1-2.1,1.5-3.3.9-.2,0-.3-.2-.4-.3l-20.2-11.6v23.8h0s0,0,0,0c0,1.2-.9,2.2-2,2.4h0s-13.6,0-13.6,0c-1.3,0-2.4-1.1-2.4-2.4s0-.4,0-.5v-23.3l-20.6,11.9h0s0,0,0,0c-1,.6-2.3.3-3-.5h0s-6.8-11.7-6.8-11.7h0c-.6-1.1-.3-2.6.9-3.3Z"/><path d="M205.7,93c0-5.6,0-8.5,0-13.5-.3-12.9-5.9-25.1-14.7-33.8h-.1c-6.1-6.2-12.2-12.3-18.3-18.5-1.7-2.4-3.6-4.8-5.8-6.9-6.1-6.2-13.6-10.5-21.8-12.8-5.4-2-11.2-3.1-17.2-3.1H52.7c-13,0-25.2,5-34.3,14.1-9.1,9.1-14.1,21.3-14.1,34.3v75.1c0,9,2.4,17.5,6.8,24.9,2.9,5.7,7,10.8,11.8,15,7.3,7.3,14.6,14.6,21.9,21.9,9.3,10,22.8,15.9,36.6,15.8,17.3,0,49.3,0,66,0,4.2,0,6.3,0,10.2,0,25.3-.3,46.5-20.8,48-45.5.4-9.2,0-43.2.2-67ZM28.4,158.8c-8-8-12.4-18.7-12.4-30.1V56.3c0-11.4,4.4-22.1,12.4-30.1,8-8,18.7-12.4,30.1-12.4h72.4c1.2,0,2.4,0,3.6.2,8,1.4,15.4,5.1,21.2,10.9,7.4,7.4,11.5,17.3,11.5,28v75.1c0,10.6-4.1,20.5-11.5,28-7.4,7.4-17.3,11.5-28,11.5H52.7c-8.3,0-16.2-2.5-22.8-7.1-.5-.5-1-1-1.6-1.5Z"/><path d="M57.5,117.3h0c.7.8,2,1.1,3,.5,0,0,0,0,0,0h0c0,0,20.6-11.9,20.6-11.9v23.3c0,.2,0,.4,0,.5,0,1.3,1.1,2.4,2.4,2.4h13.6c1.1-.2,2-1.2,2-2.4s0,0,0,0h0v-23.8l20.2,11.6c.1.1.3.2.4.3,1.1.7,2.6.3,3.3-.9l6.6-11.4h0s.2-.4.2-.4h0c.4-1,0-2.1-.8-2.8h0s0,0,0,0c0,0-.1,0-.2-.1h0s-20.4-11.7-20.4-11.7l20.7-11.9h0c1.1-.7,1.5-2.1.8-3.2,0,0,0,0,0,0h0s-6.6-11.4-6.6-11.4h0c-.7-1.1-2.1-1.5-3.2-.9h0s-20.7,11.9-20.7,11.9v-23.9h0c0-1.3-1.1-2.3-2.4-2.3h0s-13.1,0-13.1,0c-1.3,0-2.3,1-2.3,2.3h0v23.9l-20.7-12h0c-1.1-.6-2.6-.2-3.2.9,0,0,0,0,0,0h0s-6.6,11.3-6.6,11.3c-.6,1.1-.2,2.5.8,3.2h0,0s0,0,0,0h0l20.7,12-20.2,11.7c-.2,0-.3.1-.5.2-1.2.7-1.5,2.1-.9,3.3h0l6.8,11.8ZM128.9,102.5s0,0,0,0h0s0,0,0,0Z"/></svg>