<?xml version="1.0" encoding="UTF-8"?><svg id="a" xmlns="http://www.w3.org/2000/svg" viewBox="0 0 210 210"><defs><style>.b{fill:none;}.c{fill:#fff;}</style></defs><path class="b" d="M52.3,102.9c-1.2.7-1.5,2.1-.9,3.3h0l6.8,11.8h0c.7.8,2,1.1,3,.5,0,0,0,0,0,0h0c0,0,20.6-11.9,20.6-11.9v23.3c0,.2,0,.4,0,.5,0,1.3,1.1,2.4,2.4,2.4h13.6c1.1-.2,2-1.2,2-2.4s0,0,0,0h0v-23.8l20.2,11.6c.1.1.3.2.4.3,1.1.7,2.6.3,3.3-.9l6.6-11.4h0s.2-.4.2-.4h0c.4-1,0-2.1-.8-2.8h0s0,0,0,0c0,0-.1,0-.2-.1h0s-20.4-11.7-20.4-11.7l20.7-11.9h0c1.1-.7,1.5-2.1.8-3.2,0,0,0,0,0,0h0s-6.6-11.4-6.6-11.4h0c-.7-1.1-2.1-1.5-3.2-.9h0s-20.7,11.9-20.7,11.9v-23.9h0c0-1.3-1.1-2.3-2.4-2.3h0s-13.1,0-13.1,0c-1.3,0-2.3,1-2.3,2.3h0v23.9l-20.7-12h0c-1.1-.6-2.6-.2-3.2.9,0,0,0,0,0,0h0s-6.6,11.3-6.6,11.3c-.6,1.1-.2,2.5.8,3.2h0,0s0,0,0,0h0l20.7,12-20.2,11.7c-.2,0-.3.1-.5.2ZM129.6,103h0s0,0,0,0h0Z"/><path d="M205,92.4c0-5.6,0-8.5,0-13.5-.3-12.9-5.9-25.1-14.7-33.8h-.1c-7.8-7.9-15.6-15.7-23.5-23.6-8.9-10.2-22-16.6-36.8-16.6H53.4C26.5,5,5,26.5,5,53.4v76.6c0,15,6.6,28.4,17.2,37.3,7.3,7.3,14.6,14.6,21.9,21.9,9.3,10,22.8,15.9,36.6,15.8,17.3,0,49.3,0,66,0,4.2,0,6.3,0,10.2,0,25.3-.3,46.5-20.8,48-45.5.4-9.2,0-43.2.2-67ZM52.4,79h0s0,0,0,0h0s0,0,0,0c-1.1-.7-1.4-2.1-.8-3.2l6.6-11.4h0s0,0,0,0c.7-1.1,2.1-1.5,3.2-.9h0s20.7,12,20.7,12v-23.9h0c0-1.3,1.1-2.3,2.3-2.3h13.1s0,0,0,0c1.3,0,2.3,1,2.4,2.3h0v23.9l20.7-12h0c1.1-.6,2.5-.2,3.2.9h0l6.6,11.4h0s0,0,0,0c.7,1.1.3,2.6-.8,3.2h0s-20.7,11.9-20.7,11.9l20.4,11.8h0c0,0,.1,0,.2,0h0s0,0,0,0c.9.6,1.2,1.8.8,2.8h0s-.2.4-.2.4h0s-6.6,11.4-6.6,11.4c-.7,1.1-2.1,1.5-3.3.9-.2,0-.3-.2-.4-.3l-20.2-11.6v23.8h0s0,0,0,0c0,1.2-.9,2.2-2,2.4h0s-13.6,0-13.6,0c-1.3,0-2.4-1.1-2.4-2.4s0-.4,0-.5v-23.3l-20.6,11.9h0s0,0,0,0c-1,.6-2.3.3-3-.5h0s-6.8-11.7-6.8-11.7h0c-.6-1.1-.3-2.6.9-3.3.2,0,.3-.2.5-.2l20.2-11.7-20.7-12Z"/><path class="c" d="M129.6,103h0s0,0,0,0h0Z"/></svg>