<?xml version="1.0" encoding="UTF-8"?><svg id="a" xmlns="http://www.w3.org/2000/svg" viewBox="0 0 200 200"><path d="M31,101.8c0,30.5,19.8,56.3,47.2,65.4,3.5.6,4.7-1.5,4.7-3.3s0-6-.1-11.7c-19.2,4.2-23.3-9.3-23.3-9.3-3.2-8-7.7-10.1-7.7-10.1-6.3-4.3.5-4.2.5-4.2,6.9.5,10.6,7.1,10.6,7.1,6.1,10.5,16.2,7.5,20.1,5.7.6-4.5,2.4-7.5,4.4-9.2-15.3-1.8-31.5-7.7-31.5-34.1s2.7-13.7,7.1-18.5c-.7-1.8-3.1-8.8.7-18.3,0,0,5.8-1.9,19,7.1,5.5-1.5,11.4-2.3,17.3-2.3,5.9,0,11.8.8,17.3,2.3,13.2-8.9,19-7.1,19-7.1,3.8,9.5,1.4,16.5.7,18.2,4.4,4.8,7.1,11,7.1,18.5,0,26.5-16.2,32.3-31.5,34,2.5,2.1,4.7,6.3,4.7,12.8,0,9.2,0,16.6,0,18.9s1.2,4,4.7,3.3c27.4-9.1,47.2-35,47.2-65.4s-30.9-69-69.1-69l.2.2c-38.1,0-69.1,30.9-69.1,69Z"/></svg>