<?xml version="1.0" encoding="UTF-8"?><svg id="a" xmlns="http://www.w3.org/2000/svg" viewBox="0 0 210 210"><defs><style>.b{fill:none;}</style></defs><path class="b" d="M73,150.4c3,.6,4.1-1.3,4.1-2.9s0-5.2,0-10.2c-16.7,3.6-20.2-8-20.2-8-2.7-6.9-6.7-8.8-6.7-8.8-5.5-3.7.4-3.7.4-3.7,6,.4,9.2,6.2,9.2,6.2,5.3,9.2,14,6.5,17.5,5,.5-3.9,2.1-6.5,3.8-8-13.3-1.5-27.4-6.7-27.4-29.6s2.3-11.9,6.2-16.1c-.6-1.5-2.7-7.6.6-15.9,0,0,5-1.6,16.5,6.2,4.8-1.3,9.9-2,15-2,5.1,0,10.2.7,15,2,11.5-7.8,16.5-6.2,16.5-6.2,3.3,8.3,1.2,14.4.6,15.9,3.8,4.2,6.2,9.5,6.2,16.1,0,23-14,28.1-27.4,29.6,2.1,1.8,4.1,5.5,4.1,11.1,0,8,0,14.5,0,16.4s1.1,3.5,4.1,2.9c23.8-8,41-30.4,41-56.9s-26.9-60-60.1-60l.2.2c-33.2,0-60,26.8-60,60s17.2,49,41.1,56.9Z"/><path d="M205,92.4c0-5.6,0-8.5,0-13.5-.3-12.9-5.9-25.1-14.7-33.8h-.1c-7.8-7.9-15.6-15.7-23.5-23.6-8.9-10.2-22-16.6-36.8-16.6H53.9c-.4,0-.9,0-1.3,0-.2,0-.5,0-.7,0-.7,0-1.3,0-2,.1-.1,0-.3,0-.4,0C24.4,7.4,5,28.2,5,53.9v76.1c0,15,6.6,28.4,17.2,37.3,7.3,7.3,14.6,14.6,21.9,21.9,9.3,10,22.8,15.9,36.6,15.8,17.3,0,49.3,0,66,0,4.2,0,6.3,0,10.2,0,25.3-.3,46.5-20.8,48-45.5.4-9.2,0-43.2.2-67ZM92,33.5l-.2-.2c33.2,0,60.1,26.9,60.1,60s-17.2,48.9-41,56.9c-3,.6-4.1-1.3-4.1-2.9s0-8.4,0-16.4-1.9-9.3-4.1-11.1c13.4-1.5,27.4-6.6,27.4-29.6s-2.3-11.9-6.2-16.1c.6-1.5,2.7-7.6-.6-15.9,0,0-5-1.6-16.5,6.2-4.8-1.3-9.9-2-15-2-5.1,0-10.3.7-15,2-11.5-7.8-16.5-6.2-16.5-6.2-3.3,8.3-1.2,14.3-.6,15.9-3.8,4.2-6.2,9.6-6.2,16.1,0,23,14,28.1,27.4,29.6-1.7,1.5-3.3,4.1-3.8,8-3.4,1.5-12.1,4.2-17.5-5,0,0-3.2-5.8-9.2-6.2,0,0-5.9,0-.4,3.7,0,0,3.9,1.8,6.7,8.8,0,0,3.5,11.7,20.2,8,0,5,0,8.8,0,10.2s-1.1,3.4-4.1,2.9c-23.9-7.9-41.1-30.4-41.1-56.9s26.9-60,60-60Z"/></svg>