<?xml version="1.0" encoding="UTF-8"?>
<svg id="a" data-name="Layer 1" xmlns="http://www.w3.org/2000/svg" width="210" height="210" viewBox="0 0 210 210">
  <path d="M148.013,64.925c0-3.488-1.737-6.562-4.375-8.456v-10.719c0-4.826-3.927-8.75-8.75-8.75H56.138c-4.824,0-8.75,3.924-8.75,8.75v10.719c-2.638,1.893-4.375,4.968-4.375,8.456,0,.434.025.867.081,1.31l4.272,32.016-4.272,32.029c-.056.429-.081.863-.081,1.297,0,5.749,4.678,10.425,10.425,10.425h84.15c5.747,0,10.425-4.676,10.425-10.425,0-.434-.026-.867-.081-1.309l-4.272-32.016,4.272-32.028c.055-.429.081-.863.081-1.297ZM82.388,122.312c-7.238,0-13.125-5.887-13.125-13.125,0-1.209.978-2.188,2.188-2.188s2.188.978,2.188,2.188c0,4.826,3.927,8.75,8.75,8.75s8.75-3.924,8.75-8.75-3.927-8.75-8.75-8.75c-1.209,0-2.188-.979-2.188-2.188s.979-2.188,2.188-2.188c4.823,0,8.75-3.924,8.75-8.75s-3.927-8.75-8.75-8.75-8.75,3.924-8.75,8.75c0,1.209-.978,2.188-2.188,2.188s-2.188-.979-2.188-2.188c0-7.238,5.887-13.125,13.125-13.125s13.125,5.887,13.125,13.125c0,4.566-2.349,8.586-5.896,10.937,3.547,2.352,5.896,6.372,5.896,10.938,0,7.238-5.887,13.125-13.125,13.125ZM119.576,122.312c-1.209,0-2.188-.979-2.188-2.188v-39.663l-9.724,6.483c-1,.662-2.363.397-3.033-.607-.671-1.006-.397-2.363.606-3.034l13.125-8.75c.675-.447,1.534-.489,2.247-.109.709.38,1.154,1.122,1.154,1.929v43.75h0c0,1.209-.979,2.188-2.188,2.188ZM134.888,54.5H56.138v-8.75h78.75v8.75Z" fill="none"/>
  <path d="M56.138,54.5h78.75v-8.75H56.138v8.75ZM119.576,47.937c1.208,0,2.188.979,2.188,2.188s-.979,2.188-2.188,2.188-2.188-.979-2.188-2.188.979-2.188,2.188-2.188ZM71.451,47.937c1.208,0,2.188.979,2.188,2.188s-.979,2.188-2.188,2.188-2.188-.979-2.188-2.188.979-2.188,2.188-2.188Z"/>
  <path d="M89.617,98.25c3.547-2.352,5.896-6.372,5.896-10.937,0-7.238-5.887-13.125-13.125-13.125s-13.125,5.887-13.125,13.125c0,1.209.978,2.188,2.188,2.188s2.188-.979,2.188-2.188c0-4.826,3.927-8.75,8.75-8.75s8.75,3.924,8.75,8.75-3.927,8.75-8.75,8.75c-1.209,0-2.188.979-2.188,2.188s.979,2.188,2.188,2.188c4.823,0,8.75,3.924,8.75,8.75s-3.927,8.75-8.75,8.75-8.75-3.924-8.75-8.75c0-1.209-.979-2.188-2.188-2.188s-2.188.978-2.188,2.188c0,7.238,5.887,13.125,13.125,13.125s13.125-5.887,13.125-13.125c0-4.566-2.349-8.586-5.896-10.938Z" stroke="#000" stroke-miterlimit="10" stroke-width="3"/>
  <path d="M121.763,76.375c0-.807-.444-1.549-1.154-1.929-.714-.38-1.572-.338-2.247.109l-13.125,8.75c-1.004.671-1.277,2.027-.606,3.034.671,1.004,2.034,1.269,3.033.607l9.724-6.483v39.663c0,1.209.979,2.188,2.188,2.188s2.188-.979,2.188-2.188h0v-43.75Z" stroke="#000" stroke-miterlimit="10" stroke-width="3"/>
  <path d="M204.973,92.388c-.045-5.594.068-8.47-.036-13.492-.316-12.917-5.853-25.091-14.66-33.751l-.11-.112c-7.805-7.832-15.618-15.629-23.455-23.473-8.936-10.169-22.049-16.559-36.766-16.559H53.892c-.437,0-.869.021-1.303.032-.229.006-.459.008-.687.017-.666.026-1.328.068-1.987.122-.131.01-.261.018-.392.03C24.439,7.387,5,28.211,5,53.907v76.078c0,15.02,6.648,28.37,17.176,37.315,7.317,7.319,14.583,14.59,21.925,21.93,9.327,9.959,22.809,15.945,36.626,15.763,17.334-.033,49.273.024,65.967,0,4.25-.03,6.331.045,10.162-.024,25.316-.331,46.464-20.787,47.958-45.537.356-9.163.079-43.221.161-67.044ZM147.932,130.266c.055.442.081.876.081,1.309,0,5.749-4.678,10.425-10.425,10.425H53.438c-5.746,0-10.425-4.676-10.425-10.425,0-.434.025-.867.081-1.297l4.272-32.029-4.272-32.016c-.056-.442-.081-.876-.081-1.31,0-3.488,1.737-6.562,4.375-8.456v-10.719c0-4.826,3.927-8.75,8.75-8.75h78.75c4.823,0,8.75,3.924,8.75,8.75v10.719c2.638,1.893,4.375,4.968,4.375,8.456,0,.434-.026.867-.081,1.297l-4.272,32.028,4.272,32.016Z"/>
  <circle cx="71.451" cy="50.125" r="2.188" fill="#fff"/>
  <path d="M119.576,52.312c1.208,0,2.188-.979,2.188-2.188s-.979-2.188-2.188-2.188-2.188.979-2.188,2.188.979,2.188,2.188,2.188Z" fill="#fff"/>
</svg>