<?xml version="1.0" encoding="UTF-8"?><svg id="a" xmlns="http://www.w3.org/2000/svg" viewBox="0 0 200 200"><path d="M152,104l-31.2-54c-1-1.7-2.9-2.8-4.9-2.8h-21.9c-4.3,0-7,4.7-4.9,8.4l31.2,54c1,1.7,2.9,2.8,4.9,2.8h21.9c4.3,0,7-4.7,4.9-8.4Z"/><path d="M62.6,143l29.3-48.8c.8-1.4.9-3,.2-4.4l-12-24.6c-1.7-3.5-6.7-3.5-8.4,0l-26,54.3c-.6,1.2-.6,2.7,0,4l8.7,19c1.6,3.4,6.3,3.7,8.2.5Z"/><path d="M86.5,125.6l-9.6,16.8c-2.6,4.6.7,10.3,6,10.3h55.4c2.5,0,4.8-1.3,6-3.5l9.6-16.8c2.6-4.6-.7-10.3-6-10.3h-55.4c-2.5,0-4.8,1.3-6,3.5Z"/></svg>