<?xml version="1.0" encoding="UTF-8"?><svg id="a" xmlns="http://www.w3.org/2000/svg" viewBox="0 0 210 210"><defs><style>.b{fill:none;}</style></defs><path class="b" d="M109.7,100.3c.9,1.5,2.5,2.4,4.2,2.4h19c3.8,0,6.1-4.1,4.2-7.3l-27.1-46.9c-.9-1.5-2.5-2.4-4.2-2.4h-19c-3.8,0-6.1,4.1-4.2,7.3l27.1,46.9Z"/><path class="b" d="M133.6,111.2h-48.2c-2.2,0-4.2,1.2-5.2,3l-8.3,14.6c-2.3,4,.6,9,5.2,9h48.2c2.2,0,4.2-1.2,5.2-3l8.3-14.6c2.3-4-.6-9-5.2-9Z"/><path class="b" d="M44.6,112.4l7.6,16.5c1.4,3,5.5,3.2,7.2.4l25.4-42.4c.7-1.2.8-2.6.2-3.9l-10.5-21.4c-1.5-3-5.8-3-7.3,0l-22.6,47.2c-.5,1.1-.5,2.3,0,3.4Z"/><path d="M205,92.4c0-5.6,0-8.5,0-13.5-.3-12.9-5.9-25.1-14.7-33.8h-.1c-7.8-7.9-15.6-15.7-23.5-23.6-8.9-10.2-22-16.6-36.8-16.6H53.9c-.4,0-.9,0-1.3,0-.2,0-.5,0-.7,0-.7,0-1.3,0-2,.1-.1,0-.3,0-.4,0C24.4,7.4,5,28.2,5,53.9v76.1c0,15,6.6,28.4,17.2,37.3,7.3,7.3,14.6,14.6,21.9,21.9,9.3,10,22.8,15.9,36.6,15.8,17.3,0,49.3,0,66,0,4.2,0,6.3,0,10.2,0,25.3-.3,46.5-20.8,48-45.5.4-9.2,0-43.2.2-67ZM138.8,120.2l-8.3,14.6c-1.1,1.9-3.1,3-5.2,3h-48.2c-4.6,0-7.5-5-5.2-9l8.3-14.6c1.1-1.9,3.1-3,5.2-3h48.2c4.6,0,7.5,5,5.2,9ZM86.8,46.1h19c1.7,0,3.4.9,4.2,2.4l27.1,46.9c1.9,3.3-.5,7.3-4.2,7.3h-19c-1.7,0-3.4-.9-4.2-2.4l-27.1-46.9c-1.9-3.3.5-7.3,4.2-7.3ZM67.2,61.7c1.5-3.1,5.8-3.1,7.3,0l10.5,21.4c.6,1.2.5,2.7-.2,3.9l-25.4,42.4c-1.7,2.8-5.8,2.6-7.2-.4l-7.6-16.5c-.5-1.1-.5-2.4,0-3.4l22.6-47.2Z"/></svg>