<?xml version="1.0" encoding="UTF-8"?><svg id="a" xmlns="http://www.w3.org/2000/svg" viewBox="0 0 200 200"><path d="M157.8,94.1l-.2-1.1-61,.6.2,1.5c1.1,8.1,2.3,15,2.7,16.5.4,1.2,1,2.1,1.1,2.2,0,0,.5.6,1.1,1.1,1.8,1.4,15.8.8,24,.3h.6c.3,0,.4.2.5.3,0,.1.1.3,0,.6-.1.2-.3.4-.4.6-1.3,1.8-2.6,3.4-3.7,4.4-.6.5-1,1-1.2,1.1-4.6,4.3-12.5,6.6-21.2,6-9.2-.6-17.3-4.2-21.8-9.6-6.8-7.9-8.9-19.3-5.4-29.8,3.3-9.8,10.8-16.8,20.2-18.8,7.7-1.7,17.5-.9,25.1,2.2,1.1.6,2.4,1.4,3.7,2.4.4.3.9.7,1.3,1,1.2,1,2.6,2.2,4.5,2.7,1.7.5,3.5.3,5.1.1,3.6-.6,9.5-5.5,13.9-9.6,1.4-1.3,1.5-3.4.2-4.8-2.9-3.2-13-13.9-23-18.3-17.2-7.6-36.6-6.6-53.2,2.6-15.9,8.8-26.4,23.6-28.8,40.6-2.1,12.7-.3,25.1,5,35.9,1.9,3.8,6.2,11.3,14.2,18.3,2.2,2,19.7,16.5,43.1,16.5s9.4-.6,14.4-1.9c4-1.1,16.4-4.3,26.4-15.5,16.8-18.6,13.3-43.2,12.4-48Z"/></svg>