<?xml version="1.0" encoding="UTF-8"?>
<svg id="a" data-name="Layer 1" xmlns="http://www.w3.org/2000/svg" width="200" height="200" viewBox="0 0 200 200">
  <path d="M152.732,109.583l4.679-35.079c.061-.47.089-.945.089-1.42,0-3.82-1.903-7.187-4.792-9.261v-11.74c0-5.286-4.3-9.583-9.583-9.583H56.875c-5.283,0-9.583,4.298-9.583,9.583v11.74c-2.889,2.074-4.792,5.441-4.792,9.261,0,.475.028.95.089,1.434l4.679,35.065-4.679,35.079c-.061.47-.089.945-.089,1.42,0,6.296,5.124,11.418,11.418,11.418h92.165c6.294,0,11.418-5.122,11.418-11.418,0-.475-.028-.95-.089-1.434l-4.679-35.065ZM100,121.562c0,7.927-6.448,14.375-14.375,14.375s-14.375-6.448-14.375-14.375c0-1.324,1.072-2.396,2.396-2.396s2.396,1.072,2.396,2.396c0,5.285,4.3,9.583,9.583,9.583s9.583-4.298,9.583-9.583-4.301-9.583-9.584-9.583c-1.324,0-2.396-1.072-2.396-2.396s1.072-2.396,2.396-2.396c5.283,0,9.583-4.298,9.583-9.583s-4.3-9.583-9.583-9.583-9.583,4.298-9.583,9.583c0,1.324-1.072,2.396-2.396,2.396s-2.396-1.072-2.396-2.396c0-7.927,6.448-14.375,14.375-14.375s14.375,6.448,14.375,14.375c0,5.001-2.573,9.403-6.458,11.979,3.885,2.576,6.458,6.978,6.458,11.979ZM128.75,133.542c0,1.324-1.072,2.396-2.396,2.396s-2.396-1.072-2.396-2.396v-43.441l-10.65,7.101c-1.095.725-2.588.435-3.322-.664-.735-1.102-.435-2.588.664-3.322l14.375-9.583c.739-.489,1.68-.536,2.461-.119.777.416,1.263,1.228,1.263,2.113v47.917h0ZM143.125,61.667H56.875v-9.583h86.25v9.583Z"/>
  <circle cx="73.646" cy="56.875" r="2.396"/>
  <circle cx="126.354" cy="56.875" r="2.396"/>
</svg>