<?xml version="1.0" encoding="UTF-8"?><svg id="a" xmlns="http://www.w3.org/2000/svg" viewBox="0 0 200 200"><path d="M130.9,39.1h-61.7c-16.6,0-30.1,13.5-30.1,30.1v61.7c0,16.6,13.5,30.1,30.1,30.1h61.8c16.6,0,30.1-13.5,30.1-30.1v-61.7c0-16.6-13.5-30.1-30.1-30.1ZM100,139.4c-21.8,0-39.5-17.7-39.4-39.5,0-21.8,17.7-39.4,39.5-39.4,21.8,0,39.4,17.6,39.4,39.4,0,21.8-17.7,39.5-39.5,39.5ZM139.7,70.3c-5.4,0-9.7-4.3-9.7-9.7s4.4-9.7,9.7-9.7,9.7,4.3,9.7,9.7-4.4,9.7-9.7,9.7Z"/><path d="M100,75.9c-13.3,0-24.1,10.8-24.1,24.1s10.8,24.1,24.1,24.1,24.1-10.8,24.1-24.1h0c0-13.4-10.8-24.1-24.1-24.1Z"/></svg>