<?xml version="1.0" encoding="UTF-8"?><svg id="a" xmlns="http://www.w3.org/2000/svg" viewBox="0 0 210 210"><defs><style>.b{fill:none;}</style></defs><path class="b" d="M91.9,112.9c11.6,0,21-9.4,21-21h0c0-11.6-9.4-21-21-21-11.6,0-21,9.4-21,21s9.4,21,21,21Z"/><path class="b" d="M38.9,65.1v53.6c0,14.4,11.7,26.2,26.2,26.2h53.7c14.5,0,26.2-11.7,26.2-26.2v-53.6c0-14.4-11.7-26.2-26.2-26.2h-53.7c-14.5,0-26.2,11.7-26.2,26.2ZM126.4,49.2c4.7,0,8.4,3.8,8.4,8.4s-3.8,8.4-8.4,8.4-8.4-3.8-8.4-8.4,3.8-8.4,8.4-8.4ZM92,57.7c18.9,0,34.3,15.3,34.3,34.3,0,18.9-15.4,34.3-34.3,34.3-18.9,0-34.3-15.4-34.3-34.3,0-18.9,15.4-34.3,34.3-34.3Z"/><path d="M205,92.4c0-5.6,0-8.5,0-13.5-.3-12.9-5.9-25.1-14.7-33.8h-.1c-7.8-7.9-15.6-15.7-23.5-23.6-.2-.2-.4-.4-.6-.6-7.8-8.2-18-14-29.6-15.5-2.7-.3-4.9-.5-7.2-.5-17.7,0-67.9,0-74.7,0-.7,0-1.4,0-2.1,0-.2,0-.5,0-.7,0-.7,0-1.3,0-2,.1-.1,0-.3,0-.4,0C24.4,7.4,5,28.2,5,53.9v76.1c0,15,6.6,28.4,17.2,37.3,7.3,7.3,14.6,14.6,21.9,21.9,9.3,10,22.8,15.9,36.6,15.8,17.3,0,49.3,0,66,0,4.2,0,6.3,0,10.2,0,25.3-.3,46.5-20.8,48-45.5.4-9.2,0-43.2.2-67ZM65.1,39h53.7c14.5,0,26.2,11.7,26.2,26.2v53.6c0,14.4-11.7,26.2-26.2,26.2h-53.7c-14.5,0-26.2-11.7-26.2-26.2v-53.6c0-14.4,11.7-26.2,26.2-26.2Z"/><ellipse cx="126.4" cy="57.7" rx="8.4" ry="8.4"/><path d="M91.9,126.2c19,0,34.3-15.4,34.3-34.3,0-18.9-15.4-34.2-34.3-34.3-18.9,0-34.3,15.3-34.3,34.3,0,18.9,15.3,34.3,34.3,34.3ZM91.9,71c11.6,0,21,9.3,21,20.9h0c0,11.7-9.4,21-21,21s-21-9.4-21-21,9.4-21,21-21Z"/></svg>