<?xml version="1.0" encoding="UTF-8"?><svg id="a" xmlns="http://www.w3.org/2000/svg" viewBox="0 0 200 200"><path d="M66.9,83.8h-23.8c-2.7,0-4.5,1.7-4.5,4.5l-.2,75.9h27c.4,0,3.3-.4,5-3,1.5-2.2,1.1-4.5,1-5,0-22.6,0-45.3,0-67.9,0-2.7-1.7-4.5-4.5-4.5Z"/><path d="M54,40.1c-9.3,0-16.4,7-16.4,16.4s7,16.4,16.4,16.4,16.4-7,16.4-16.4-7-16.4-16.4-16.4Z"/><path d="M139.4,163.1c4.6.3,19,0,19,0,0,0-.7-.7-.7-3.5v-44.5c-3.6-15.9-14.4-27.6-26.8-29.2-5-.6-10,.3-15.1,2.9l-3.1,1.5,1-3.3c.4-1.5,0-2.7-.7-3.1-.4-.2-.8-.2-1.1-.2h-.2s-23.8,0-23.8,0c-2.7,0-4.5,1.7-4.5,4.5v71.4c0,2.7.1,4.5.1,4.5,0,0,14.8,0,20,0,1.9-.5,4.6-1.5,6-4,1-1.6,1-3.3,1-4-.1-11.7-.2-23.4-.4-35.2,0-5.6,4.9-10.4,10.4-10.4s10.4,4.9,10.4,10.4l-.5,35.2c.1.9.4,1.9,1,3,2.3,3.9,7.5,4,8,4Z"/></svg>