<?xml version="1.0" encoding="UTF-8"?><svg id="a" xmlns="http://www.w3.org/2000/svg" viewBox="0 0 210 210"><defs><style>.b{fill:none;}</style></defs><path class="b" d="M57.7,170.6h72.4c11.4,0,22.1-4.4,30.1-12.4,8-8,12.4-18.7,12.4-30.1V55.7c0-11.4-4.4-22.1-12.4-30.1-8-8-18.7-12.4-30.1-12.4H57.7c-11.4,0-22.1,4.4-30.1,12.4-8,8-12.4,18.7-12.4,30.1v72.5c0,11.4,4.4,22.1,12.4,30.1,8,8,18.7,12.4,30.1,12.4ZM79.1,79.9c0-2.4,1.5-3.9,3.9-3.9h20.9c.3,0,.7,0,1,.1.6.3,1,1.4.6,2.7l-.9,2.9,2.7-1.3c4.4-2.2,8.9-3,13.2-2.5,10.8,1.4,20.2,11.6,23.3,25.4v38.7c0,2.4.6,3,.6,3,0,0-12.5.3-16.5,0-.5,0-4.9-.1-7-3.5-.6-.9-.8-1.8-.9-2.6l.4-30.6c0-4.8-4.2-9.1-9.1-9.1s-9.1,4.2-9.1,9.1c.1,10.2.2,20.4.3,30.6,0,.6,0,2.1-.9,3.5-1.2,2.1-3.6,3.1-5.2,3.5-4.5,0-17.4,0-17.4,0,0,0-.1-1.5-.1-3.9v-62.1ZM68.8,138.9c0,.4.4,2.4-.9,4.3-1.5,2.3-4,2.6-4.3,2.6h-23.5l.2-66c0-2.4,1.5-3.9,3.9-3.9h20.7c2.4,0,3.9,1.5,3.9,3.9,0,19.7,0,39.4,0,59ZM53.6,38c8.1,0,14.2,6.1,14.2,14.2s-6.1,14.2-14.2,14.2-14.2-6.1-14.2-14.2,6.1-14.2,14.2-14.2Z"/><path d="M64.9,76h-20.7c-2.4,0-3.9,1.5-3.9,3.9l-.2,66h23.5c.3,0,2.8-.3,4.3-2.6,1.3-1.9.9-3.9.9-4.3,0-19.7,0-39.4,0-59,0-2.4-1.5-3.9-3.9-3.9Z"/><path d="M53.6,66.5c8.1,0,14.2-6.1,14.2-14.2s-6.1-14.2-14.2-14.2-14.2,6.1-14.2,14.2,6.1,14.2,14.2,14.2Z"/><path d="M96.6,145.9c1.6-.4,4-1.3,5.2-3.5.8-1.4.9-2.8.9-3.5-.1-10.2-.2-20.4-.3-30.6,0-4.8,4.2-9.1,9.1-9.1s9.1,4.2,9.1,9.1l-.4,30.6c0,.8.3,1.7.9,2.6,2,3.4,6.5,3.5,7,3.5,4,.3,16.5,0,16.5,0,0,0-.6-.6-.6-3v-38.7c-3.1-13.8-12.5-24-23.3-25.4-4.3-.5-8.7.3-13.2,2.5l-2.7,1.3.9-2.9c.4-1.3,0-2.4-.6-2.7-.3-.2-.7-.2-1-.1h-.2s-20.7,0-20.7,0c-2.4,0-3.9,1.5-3.9,3.9v62.1c0,2.4.1,3.9.1,3.9,0,0,12.8,0,17.4,0Z"/><path d="M205,92.4c0-5.6,0-8.5,0-13.5-.3-12.9-5.9-25.1-14.7-33.8h-.1c-6.1-6.2-12.2-12.3-18.3-18.5-1.7-2.4-3.6-4.8-5.8-6.9-9.5-9.5-22.3-14.8-35.9-14.8H53.9c-.4,0-.9,0-1.3,0-.2,0-.5,0-.7,0-.7,0-1.3,0-2,.1-.1,0-.3,0-.4,0C24.4,7.4,5,28.2,5,53.9v76.1c0,15,6.6,28.4,17.2,37.3,7.3,7.3,14.6,14.6,21.9,21.9,9.3,10,22.8,15.9,36.6,15.8,17.3,0,49.3,0,66,0,4.2,0,6.3,0,10.2,0,25.3-.3,46.5-20.8,48-45.5.4-9.2,0-43.2.2-67ZM15.3,128.2V55.7c0-11.4,4.4-22.1,12.4-30.1,8-8,18.7-12.4,30.1-12.4h72.4c11.4,0,22.1,4.4,30.1,12.4,8,8,12.4,18.7,12.4,30.1v72.5c0,11.4-4.4,22.1-12.4,30.1-8,8-18.7,12.4-30.1,12.4H57.7c-11.4,0-22.1-4.4-30.1-12.4-8-8-12.4-18.7-12.4-30.1Z"/></svg>