<?xml version="1.0" encoding="UTF-8"?>
<svg id="a" data-name="Layer 1" xmlns="http://www.w3.org/2000/svg" width="210" height="210" viewBox="0 0 210 210">
  <path d="M76.716,114.794c10.21,0,20.118-8.443,20.118-26.869,0-15.134-7.799-25.733-19.493-25.733-12.239,0-20.346,10.391-20.353,26.667,0,16.262,8.578,25.935,19.728,25.935ZM77.025,73.309c5.381,0,7.563,7.617,7.563,15.134,0,9.062-2.955,15.134-7.563,15.134-5.065,0-7.792-6.489-7.792-15.134,0-7.416,2.102-15.134,7.792-15.134Z" fill="none"/>
  <path d="M130.182,13.281H57.749c-11.406,0-22.08,4.394-30.056,12.373-7.976,7.979-12.369,18.656-12.369,30.065v72.456c0,11.409,4.393,22.087,12.369,30.065,7.976,7.979,18.65,12.373,30.056,12.373h72.433c11.406,0,22.08-4.394,30.056-12.373,7.976-7.979,12.368-18.656,12.368-30.065V55.719c0-11.409-4.393-22.087-12.368-30.065-7.976-7.979-18.65-12.373-30.056-12.373ZM111.148,139.225l-68.481-5.024V43.801l68.481-6.025v101.449ZM152.667,76.923c0,.081-.007.168-.013.255.007.087.013.168.013.255v30.039c0,2.022-1.444,3.654-3.211,3.654h-31.55v-7.302h28.34v-19.298l-17.874,14.489c-1.095.893-2.633.893-3.728.007l-6.737-5.461v-9.263l8.591,7.04,16.376-13.495h-24.968v-7.302h31.55c1.767,0,3.211,1.639,3.211,3.654v2.727Z" fill="none"/>
  <path d="M204.974,92.388c-.045-5.594.068-8.47-.036-13.492-.316-12.917-5.852-25.091-14.66-33.751l-.109-.112c-6.099-6.12-12.206-12.223-18.322-18.339-1.699-2.44-3.613-4.753-5.755-6.896-9.539-9.542-22.293-14.798-35.909-14.798H57.749c-.319,0-.635.017-.953.023-.923-.001-1.652-.003-2.146-.006-.69-.013-1.376-.001-2.061.016-.229.006-.459.008-.687.017-.666.026-1.328.068-1.987.122-.13.01-.261.018-.391.03C24.438,7.387,5,28.211,5,53.907v76.078c0,15.02,6.648,28.371,17.177,37.316,7.316,7.319,14.582,14.589,21.923,21.929,9.327,9.959,22.809,15.945,36.626,15.763,17.334-.033,49.273.024,65.968,0,4.25-.03,6.331.045,10.162-.024,25.316-.331,46.464-20.787,47.958-45.537.357-9.163.079-43.221.161-67.044ZM172.607,128.174c0,11.409-4.393,22.087-12.368,30.065-7.976,7.979-18.65,12.373-30.056,12.373H57.749c-11.406,0-22.08-4.394-30.056-12.373-7.976-7.979-12.369-18.656-12.369-30.065V55.719c0-11.409,4.393-22.087,12.369-30.065,7.976-7.979,18.65-12.373,30.056-12.373h72.433c11.406,0,22.08,4.394,30.056,12.373,7.976,7.979,12.368,18.656,12.368,30.065v72.456Z"/>
  <path d="M149.456,70.542h-31.55v7.302h24.968l-16.376,13.495-8.591-7.04v9.263l6.737,5.461c1.095.887,2.633.887,3.728-.007l17.874-14.489v19.298h-28.34v7.302h31.55c1.767,0,3.211-1.632,3.211-3.654v-30.039c0-.087-.007-.168-.013-.255.007-.087.013-.175.013-.255v-2.727c0-2.015-1.444-3.654-3.211-3.654Z" fill="#030104"/>
  <path d="M77.025,103.577c4.608,0,7.563-6.072,7.563-15.134,0-7.516-2.183-15.134-7.563-15.134-5.689,0-7.792,7.718-7.792,15.134,0,8.645,2.727,15.134,7.792,15.134Z" fill="#030104"/>
  <path d="M42.667,134.2l68.481,5.024V37.775l-68.481,6.025v90.399ZM77.341,62.192c11.695,0,19.493,10.6,19.493,25.733,0,18.425-9.908,26.869-20.118,26.869-11.151,0-19.728-9.673-19.728-25.935.007-16.276,8.114-26.667,20.353-26.667Z" fill="#030104"/>
</svg>