<?xml version="1.0" encoding="UTF-8"?>
<svg id="a" data-name="Layer 1" xmlns="http://www.w3.org/2000/svg" width="210" height="210" viewBox="0 0 210 210">
  <path d="M75.63,114.294c10.21,0,20.118-8.443,20.118-26.869,0-15.134-7.799-25.733-19.493-25.733-12.239,0-20.346,10.391-20.353,26.667,0,16.262,8.578,25.935,19.728,25.935ZM75.939,72.809c5.381,0,7.564,7.617,7.564,15.134,0,9.062-2.956,15.134-7.564,15.134-5.064,0-7.792-6.489-7.792-15.134,0-7.416,2.103-15.134,7.792-15.134Z"/>
  <path d="M203.973,91.388c-.045-5.594.068-8.47-.036-13.492-.316-12.917-5.853-25.091-14.66-33.751l-.11-.112c-7.805-7.832-15.618-15.629-23.455-23.473-8.936-10.169-22.049-16.559-36.766-16.559H52.892c-.437,0-.869.021-1.303.032-.229.006-.459.008-.687.017-.666.026-1.328.068-1.987.122-.131.01-.261.018-.392.03C23.439,6.387,4,27.211,4,52.907v76.078c0,15.02,6.648,28.37,17.176,37.315,7.317,7.319,14.583,14.59,21.925,21.93,9.327,9.959,22.809,15.946,36.626,15.763,17.334-.033,49.273.024,65.967,0,4.25-.03,6.331.045,10.162-.024,25.316-.331,46.464-20.787,47.958-45.537.356-9.163.079-43.221.161-67.044ZM110.062,138.725l-68.481-5.024V43.301l68.481-6.025v101.449ZM151.581,76.934v30.039c0,2.022-1.444,3.654-3.211,3.654h-31.55v-7.302h28.339v-19.298l-17.874,14.489c-1.095.893-2.633.893-3.728.007l-6.737-5.461v-9.263l8.591,7.04,16.376-13.495h-24.968v-7.302h31.55c1.767,0,3.211,1.639,3.211,3.654,0,0,0,2.727,0,2.727,0,.081-.007.168-.014.255.007.087.014.168.014.255Z"/>
</svg>