<?xml version="1.0" encoding="UTF-8"?><svg id="a" xmlns="http://www.w3.org/2000/svg" viewBox="0 0 200 200"><path d="M150.8,101.8c6.3-13.3,3.5-30.3-6-41.5-19.1-22.4-57-26-83-13.9-20.6,9-30.2,33.4-24.2,54.5,1.6,4.8,3.9,12.2,9.1,13.1,4.6.5,9-4,12.5-7.1,7.8-7.7-5.5-13.5,1.5-28.1,4.4-9.5,14.8-16.5,25.6-18.4,16.1-3.1,36.1,3.6,42.9,19.4,6.2,15.5-5.7,29.2-21.8,28.3-9.3-.4-9.6-2.3-9.3-11.4,0-4.7,0-10.7,0-15.3-.1-3,.5-6.1-1.9-7.9-2.9-2.1-17.1-3.1-20.1.6-1.1,1.3-1.3,3.1-1.5,4.8-.2,3.4,0,7.2,0,10.5,0,10.5.6,21,.4,31.6-.4,4.7.4,14.6-5.2,15.6-2.4.4-6.3-1.3-8.5-.7-2.4.7-2.6,3.7-2.8,6.3-.5,8.1,2.7,13.4,10.7,14.8,8.8,2,18.5-.8,24-8.1,2.1-2.7,3.7-5.8,4.7-9.2,1.6-3.9.6-11.1,5-12.8,1.5-.5,3.7-.3,5.4-.3,17.6,1,35-8.9,42.4-24.8v-.2Z"/></svg>