<?xml version="1.0" encoding="UTF-8"?><svg id="a" xmlns="http://www.w3.org/2000/svg" viewBox="0 0 210 210"><defs><style>.b{fill:none;}</style></defs><path class="b" d="M50,105.3c4,.4,7.8-3.5,10.8-6.2,6.8-6.7-4.8-11.7,1.3-24.5,3.9-8.3,12.8-14.3,22.3-16,14-2.7,31.4,3.1,37.3,16.9,5.4,13.5-4.9,25.4-18.9,24.6-8.1-.3-8.3-2-8.1-9.9,0-4.1,0-9.3,0-13.3-.1-2.6.5-5.3-1.7-6.9-2.5-1.8-14.8-2.7-17.5.5-1,1.2-1.2,2.7-1.3,4.2-.1,2.9,0,6.3,0,9.1,0,9.1.5,18.3.4,27.5-.3,4.1.3,12.7-4.5,13.6-2.1.3-5.5-1.2-7.4-.6-2.1.6-2.3,3.3-2.4,5.5-.5,7.1,2.3,11.6,9.3,12.9,7.6,1.7,16.1-.7,20.9-7,1.9-2.4,3.2-5,4.1-8,1.4-3.4.5-9.7,4.4-11.1,1.3-.5,3.2-.3,4.7-.2,15.3.9,30.4-7.8,36.8-21.5v-.2c5.5-11.6,3.1-26.3-5.1-36-16.6-19.5-49.5-22.6-72.1-12.1-17.9,7.9-26.2,29-21,47.4,1.3,4.2,3.4,10.6,7.9,11.4Z"/><path d="M205,92.4c0-5.6,0-8.5,0-13.5-.3-12.9-5.9-25.1-14.7-33.8h-.1c-7.8-7.9-15.6-15.7-23.5-23.6-.2-.2-.4-.4-.6-.6-7.8-8.2-18-14-29.6-15.5-2.7-.3-4.9-.5-7.2-.5-4.1,0-10.1,0-16.8,0-.4,0-.9,0-1.4,0-21.9,0-51.4,0-56.5,0-.7,0-1.4,0-2.1,0-.2,0-.5,0-.7,0-.7,0-1.3,0-2,.1-.1,0-.3,0-.4,0C24.7,7.4,4.6,29.2,5.1,54.6c.2,5.5,0,31.5,0,53.5,0,10,0,19.2.2,25.2.9,13.2,7.1,24.7,16.3,33.3.2.2.5.5.7.7,7.3,7.3,14.6,14.6,21.9,21.9,9.3,10,22.8,15.9,36.6,15.8,17.3,0,49.3,0,66,0,4.2,0,6.3,0,10.2,0,25.3-.3,46.5-20.8,48-45.5.4-9.2,0-43.2.2-67ZM63.1,46.6c22.6-10.5,55.5-7.4,72.1,12.1,8.2,9.7,10.6,24.5,5.2,36v.2c-6.5,13.8-21.6,22.5-36.9,21.5-1.5,0-3.4-.2-4.7.2-3.8,1.5-3,7.8-4.4,11.1-.9,3-2.2,5.6-4.1,8-4.8,6.4-13.2,8.7-20.9,7-7-1.3-9.7-5.8-9.3-12.9.1-2.2.3-4.9,2.4-5.5,1.9-.6,5.3.9,7.4.6,4.9-.9,4.2-9.5,4.5-13.6.2-9.2-.4-18.3-.4-27.5,0-2.8,0-6.2,0-9.1.1-1.5.3-3,1.3-4.2,2.6-3.2,14.9-2.3,17.5-.5,2.1,1.6,1.5,4.3,1.7,6.9,0,4,0,9.3,0,13.3-.2,7.8,0,9.5,8.1,9.9,14,.9,24.4-11.1,18.9-24.6-5.9-13.8-23.2-19.6-37.3-16.9-9.4,1.7-18.4,7.7-22.3,16-6,12.8,5.5,17.8-1.3,24.5-3,2.7-6.8,6.6-10.8,6.2-4.5-.8-6.5-7.2-7.9-11.4-5.2-18.3,3.1-39.5,21-47.4Z"/></svg>