<?xml version="1.0" encoding="UTF-8"?><svg id="a" xmlns="http://www.w3.org/2000/svg" viewBox="0 0 210 210"><defs><style>.b{fill:none;}</style></defs><path class="b" d="M57.7,170.6h72.4c11.4,0,22.1-4.4,30.1-12.4,8-8,12.4-18.7,12.4-30.1V55.7c0-11.4-4.4-22.1-12.4-30.1-8-8-18.7-12.4-30.1-12.4H57.7c-11.4,0-22.1,4.4-30.1,12.4-8,8-12.4,18.7-12.4,30.1v72.5c0,11.4,4.4,22.1,12.4,30.1,8,8,18.7,12.4,30.1,12.4ZM107.9,146.9c-.7.4-1.7.8-2.9.9-3.8,0-6.5-4-7.8-5.9-2.2-3.3-3.1-6.7-3.4-9.2l-.4-9.7c0-1.8,1.3-3.3,3.1-3.4l9.7-.4c7.1-.3,13.2,5.2,13.5,12.4.4,8.5-8.4,13.5-11.7,15.3ZM145,102.1c-.9,6-.7,7.7-2.2,9.7-1.3,1.7-3.3,2.6-5.4,2.6h-34.2c-7.6,0-13.2-8.8-7.1-16.8,1.3-1.7,3.3-2.6,5.4-2.6h34.2c1.2-.2,8.1-1,9.7,2.1.4.8.2,1.2-.4,5ZM117.5,76.9c.4-7.1,6.5-12.6,13.7-12.1,8.5.5,12.6,9.7,14.1,13.2.3.8.7,1.8.6,3-.3,3.7-4.6,6.1-6.7,7.2-3.5,1.9-6.9,2.4-9.4,2.4l-9.7-.6c-1.8-.1-3.1-1.6-3-3.4l.6-9.7ZM92,46.4c0-.9.4-1.5.9-2,0,0,.7-.9,1.9-1.6,1.1-.6,11.4-5.5,15.4-.7.4.5,1.8,2.4,1.2,6.5v32.5c0,7.8-9.2,13.4-17.3,6.7-1.3-1.1-2.1-2.8-2.1-4.6v-36.7ZM86,147.7c-.1,0-.2,0-.4.1-2.1.7-4,.2-5.5-.1-6.5-1.6-7.1-1.5-8.3-2.6-1.3-1.1-1.9-2.2-2-2.5-.5-1-.7-2-.7-3.1v-35.6c0-2.2,1-4.3,2.7-5.6,7.9-6,16.7-.4,16.7,7.2v32.5c.1,1.6.6,8.2-2.5,9.7ZM74,39.3c.8-.4,1.7-.8,2.9-.7,3.8.1,6.3,4.2,7.6,6.3,2.1,3.4,2.8,6.8,3,9.3v9.7c0,1.8-1.4,3.2-3.2,3.2h-9.7c-7.1,0-12.9-5.8-12.9-12.9s8.9-13.1,12.3-14.8ZM36.2,84.4c1-8.1,1.8-9,2.2-9.6,1.3-1.7,3.3-2.7,5.5-2.7h34.2c7.6,0,13.2,8.8,7.1,16.7-1.3,1.7-3.3,2.7-5.5,2.7h-34.2c-1,.1-7.7.8-9.4-2.5-.3-.6-.4-1.1,0-4.6ZM41.1,101.9c3.3-2.3,6.6-3.1,9.1-3.5l9.7-.5c1.8,0,3.3,1.3,3.4,3.1l.5,9.7c.4,7.1-5.1,13.2-12.2,13.6-8.5.5-13.6-8.2-15.5-11.5-.4-.7-.9-1.7-.9-2.9,0-3.8,3.9-6.5,5.8-7.9Z"/><path d="M135.7,95h-34.2c-2.1,0-4.1.9-5.4,2.6-6.1,8-.5,16.8,7.1,16.8h34.2c2.1,0,4.1-.9,5.4-2.6,1.5-1.9,1.4-3.6,2.2-9.7.5-3.8.8-4.3.4-5-1.6-3.1-8.4-2.2-9.7-2.1Z"/><path d="M45.5,91.5h34.2c2.1,0,4.2-1,5.5-2.7,6.1-7.9.5-16.7-7.1-16.7h-34.2c-2.1,0-4.2,1-5.5,2.7-.5.6-1.2,1.6-2.2,9.6-.4,3.5-.4,4,0,4.6,1.7,3.2,8.4,2.6,9.4,2.5Z"/><path d="M94.1,87.7c8.1,6.8,17.3,1.1,17.3-6.7v-32.5c.6-4-.8-5.9-1.2-6.5-4-4.8-14.3.2-15.4.7-1.2.6-1.9,1.6-1.9,1.6-.5.5-.9,1.2-.9,2v36.7c0,1.8.7,3.4,2.1,4.6Z"/><path d="M71.8,98.3c-1.7,1.3-2.7,3.4-2.7,5.6v35.6c0,1.1.2,2.2.7,3.1.1.3.7,1.4,2,2.5,1.2,1,1.8.9,8.3,2.6,1.5.4,3.3.8,5.5.1.2,0,.3,0,.4-.1,3.1-1.5,2.6-8.1,2.5-9.7v-32.5c0-7.6-8.7-13.2-16.7-7.2Z"/><path d="M74.5,67h9.7c1.8,0,3.2-1.4,3.2-3.2v-9.7c-.2-2.5-.9-5.9-3-9.3-1.3-2-3.8-6.2-7.6-6.3-1.2,0-2.2.4-2.9.7-3.4,1.7-12.3,6.3-12.3,14.8s5.8,12.9,12.9,12.9Z"/><path d="M51.6,124.3c7.1-.4,12.6-6.5,12.2-13.6l-.5-9.7c0-1.8-1.6-3.1-3.4-3.1l-9.7.5c-2.5.3-5.9,1.2-9.1,3.5-2,1.4-5.9,4.2-5.8,7.9,0,1.2.5,2.2.9,2.9,1.9,3.3,7,12,15.5,11.5Z"/><path d="M106.2,119.2l-9.7.4c-1.8,0-3.2,1.6-3.1,3.4l.4,9.7c.3,2.5,1.1,5.9,3.4,9.2,1.4,2,4.1,6,7.8,5.9,1.2,0,2.2-.5,2.9-.9,3.3-1.8,12.1-6.8,11.7-15.3-.3-7.1-6.3-12.7-13.5-12.4Z"/><path d="M120,90l9.7.6c2.5,0,6-.5,9.4-2.4,2.1-1.1,6.4-3.5,6.7-7.2.1-1.2-.2-2.2-.6-3-1.5-3.5-5.6-12.7-14.1-13.2-7.1-.4-13.2,5-13.7,12.1l-.6,9.7c-.1,1.8,1.3,3.3,3,3.4Z"/><path d="M205,92.4c0-5.6,0-8.5,0-13.5-.3-12.9-5.9-25.1-14.7-33.8h-.1c-6.1-6.2-12.2-12.3-18.3-18.5-1.7-2.4-3.6-4.8-5.8-6.9-9.5-9.5-22.3-14.8-35.9-14.8H53.9c-.4,0-.9,0-1.3,0-.2,0-.5,0-.7,0-.7,0-1.3,0-2,.1-.1,0-.3,0-.4,0C24.4,7.4,5,28.2,5,53.9v76.1c0,15,6.6,28.4,17.2,37.3,7.3,7.3,14.6,14.6,21.9,21.9,9.3,10,22.8,15.9,36.6,15.8,17.3,0,49.3,0,66,0,4.2,0,6.3,0,10.2,0,25.3-.3,46.5-20.8,48-45.5.4-9.2,0-43.2.2-67ZM15.3,128.2V55.7c0-11.4,4.4-22.1,12.4-30.1,8-8,18.7-12.4,30.1-12.4h72.4c11.4,0,22.1,4.4,30.1,12.4,8,8,12.4,18.7,12.4,30.1v72.5c0,11.4-4.4,22.1-12.4,30.1-8,8-18.7,12.4-30.1,12.4H57.7c-11.4,0-22.1-4.4-30.1-12.4-8-8-12.4-18.7-12.4-30.1Z"/></svg>