<?xml version="1.0" encoding="UTF-8"?><svg id="a" xmlns="http://www.w3.org/2000/svg" viewBox="0 0 200 200"><defs><style>.b{fill:none;}</style></defs><path class="b" d="M58.3,190.5h83.3c13.1,0,25.4-5.1,34.6-14.2,9.2-9.2,14.2-21.5,14.2-34.6V58.3c0-13.1-5.1-25.4-14.2-34.6-9.2-9.2-21.5-14.2-34.6-14.2H58.3c-13.1,0-25.4,5.1-34.6,14.2-9.2,9.2-14.2,21.5-14.2,34.6v83.3c0,13.1,5.1,25.4,14.2,34.6,9.2,9.2,21.5,14.2,34.6,14.2ZM116.1,163.2c-.9.5-1.9,1-3.3,1-4.3,0-7.5-4.6-9-6.8-2.6-3.8-3.5-7.7-3.9-10.5l-.5-11.1c0-2.1,1.5-3.8,3.6-3.9l11.1-.5c8.2-.3,15.1,6,15.5,14.2.4,9.8-9.6,15.5-13.5,17.6ZM158.7,111.7c-1,7-.9,8.9-2.6,11.1-1.5,1.9-3.8,3-6.2,3h-39.4c-8.8,0-15.2-10.1-8.2-19.3,1.5-1.9,3.8-3,6.2-3h39.4c1.4-.2,9.3-1.2,11.1,2.4.5.9.2,1.4-.4,5.8ZM127.1,82.7c.5-8.2,7.5-14.4,15.7-14,9.8.6,14.5,11.2,16.2,15.2.4.9.8,2,.6,3.4-.4,4.3-5.3,7-7.7,8.3-4,2.2-8,2.7-10.9,2.8l-11.1-.7c-2-.1-3.6-1.9-3.5-3.9l.6-11.1ZM97.8,47.7c0-1,.4-1.7,1-2.4,0,0,.8-1.1,2.2-1.8,1.2-.6,13.1-6.3,17.7-.8.5.6,2.1,2.8,1.4,7.4v37.4c0,8.9-10.6,15.5-19.9,7.7-1.5-1.3-2.4-3.2-2.4-5.3v-42.2ZM90.8,164.1c-.1,0-.2,0-.4.2-2.5.8-4.6.3-6.3-.2-7.4-1.8-8.1-1.8-9.5-2.9-1.5-1.2-2.1-2.5-2.3-2.9-.5-1.1-.8-2.3-.8-3.6v-41c0-2.5,1.1-4.9,3.1-6.5,9.1-6.9,19.2-.5,19.2,8.2v37.4c.2,1.8.7,9.5-2.9,11.2ZM77,39.4c.9-.4,2-.9,3.4-.8,4.3.1,7.3,4.9,8.7,7.2,2.4,3.9,3.2,7.8,3.4,10.7v11.1c0,2.1-1.7,3.7-3.7,3.7h-11.1c-8.2,0-14.9-6.7-14.9-14.9s10.3-15.1,14.2-17ZM33.6,91.3c1.2-9.3,2-10.4,2.5-11.1,1.5-2,3.9-3.1,6.3-3.1h39.3c8.7,0,15.2,10.1,8.2,19.2-1.5,2-3.9,3.1-6.3,3.1h-39.3c-1.2.1-8.9.9-10.8-2.8-.4-.7-.4-1.3,0-5.3ZM39.2,111.5c3.7-2.6,7.6-3.6,10.5-4l11.1-.6c2-.1,3.8,1.5,3.9,3.5l.6,11.1c.4,8.2-5.8,15.2-14,15.7-9.8.5-15.7-9.4-17.8-13.3-.5-.8-1-1.9-1-3.3-.1-4.3,4.5-7.5,6.7-9.1Z"/><path d="M148,103.5h-39.4c-2.4,0-4.7,1.1-6.2,3-7,9.1-.6,19.3,8.2,19.3h39.4c2.4,0,4.7-1.1,6.2-3,1.7-2.2,1.6-4.2,2.6-11.1.6-4.4.9-4.9.4-5.8-1.9-3.6-9.7-2.6-11.1-2.4Z"/><path d="M44.3,99.5h39.3c2.5,0,4.8-1.1,6.3-3.1,7-9.1.5-19.2-8.2-19.2h-39.3c-2.5,0-4.8,1.1-6.3,3.1-.5.7-1.4,1.8-2.5,11.1-.5,4-.5,4.6,0,5.3,1.9,3.7,9.6,3,10.8,2.8Z"/><path d="M100.2,95.1c9.3,7.8,19.9,1.3,19.9-7.7v-37.4c.7-4.6-.9-6.8-1.4-7.4-4.6-5.5-16.5.2-17.7.8-1.4.7-2.2,1.8-2.2,1.8-.6.6-1,1.3-1,2.4v42.2c0,2,.9,4,2.4,5.3Z"/><path d="M74.5,107.3c-2,1.5-3.1,3.9-3.1,6.5v41c0,1.3.3,2.5.8,3.6.2.4.8,1.6,2.3,2.9,1.4,1.2,2.1,1.1,9.5,2.9,1.7.4,3.8,1,6.3.2.2,0,.3,0,.4-.2,3.6-1.7,3-9.3,2.9-11.2v-37.4c0-8.7-10.1-15.1-19.2-8.2Z"/><path d="M77.6,71.3h11.1c2.1,0,3.7-1.7,3.7-3.7v-11.1c-.2-2.9-1-6.8-3.4-10.7-1.5-2.3-4.4-7.1-8.7-7.2-1.4,0-2.5.4-3.4.8-3.9,1.9-14.2,7.3-14.2,17s6.7,14.9,14.9,14.9Z"/><path d="M51.3,137.2c8.2-.4,14.5-7.5,14-15.7l-.6-11.1c-.1-2-1.9-3.6-3.9-3.5l-11.1.6c-2.9.4-6.7,1.4-10.5,4-2.3,1.6-6.8,4.8-6.7,9.1,0,1.4.6,2.5,1,3.3,2.1,3.8,8,13.8,17.8,13.3Z"/><path d="M114.1,131.4l-11.1.5c-2.1,0-3.6,1.8-3.6,3.9l.5,11.1c.3,2.9,1.3,6.8,3.9,10.5,1.6,2.3,4.7,6.9,9,6.8,1.4,0,2.5-.5,3.3-1,3.8-2.1,13.9-7.9,13.5-17.6-.3-8.2-7.3-14.6-15.5-14.2Z"/><path d="M129.9,97.7l11.1.7c2.9,0,6.8-.6,10.9-2.8,2.4-1.3,7.3-4,7.7-8.3.1-1.4-.3-2.5-.6-3.4-1.7-4-6.4-14.6-16.2-15.2-8.2-.5-15.2,5.8-15.7,14l-.6,11.1c-.1,2,1.4,3.8,3.5,3.9Z"/></svg>