<?xml version="1.0" encoding="UTF-8"?><svg id="a" xmlns="http://www.w3.org/2000/svg" viewBox="0 0 210 210"><defs><style>.b{fill:none;}</style></defs><path class="b" d="M130.2,13.3H57.7c-11.4,0-22.1,4.4-30.1,12.4-8,8-12.4,18.7-12.4,30.1v72.5c0,11.4,4.4,22.1,12.4,30.1,8,8,18.7,12.4,30.1,12.4h72.4c11.4,0,22.1-4.4,30.1-12.4,8-8,12.4-18.7,12.4-30.1V55.7c0-11.4-4.4-22.1-12.4-30.1-8-8-18.7-12.4-30.1-12.4ZM129.1,58.1c-7.3,21.7-28.3,84.2-28.3,84.2l-17.7-12.4q-.8-.8-1.6-1.7c-2.9-3.1-4.9-6.5-1-12.3,7.9-11.9,15.5-22.1,17.8-25.4.4-.7.3-1.5-.2-2.1-2.3-2.1-9.2-8.6-9.2-8.6-.6-.5-1.4-.6-2,0-3.4,2.7-14.3,11.7-24.2,19.5-3.3,2.6-8.7,2.7-12.1,0,0,0-1.3-1-1.5-1.2-7.5-6.4-17.2-18.6-15.9-19.1,2.8-1.1,58.3-20.9,85.9-30.8,6.2-2.2,12.2,3.7,10.1,10Z"/><path d="M118.9,48.1c-27.6,9.9-83.1,29.7-85.9,30.8-1.3.5,8.4,12.7,15.9,19.1.2.2,1.5,1.2,1.5,1.2,3.3,2.6,8.7,2.6,12.1,0,9.9-7.8,20.9-16.7,24.2-19.5.6-.5,1.5-.5,2,0,0,0,6.9,6.4,9.2,8.6.6.5.7,1.4.2,2.1-2.3,3.4-9.9,13.6-17.8,25.4-3.9,5.8-1.9,9.2,1,12.3q.8.8,1.6,1.7l17.7,12.4s21-62.5,28.3-84.2c2.1-6.3-3.9-12.2-10.1-10Z"/><path d="M205,92.4c0-5.6,0-8.5,0-13.5-.3-12.9-5.9-25.1-14.7-33.8h-.1c-6.1-6.2-12.2-12.3-18.3-18.5-1.7-2.4-3.6-4.8-5.8-6.9-9.5-9.5-22.3-14.8-35.9-14.8H57.7c-.3,0-.6,0-1,0-.9,0-1.7,0-2.1,0-.7,0-1.4,0-2.1,0-.2,0-.5,0-.7,0-.7,0-1.3,0-2,.1-.1,0-.3,0-.4,0C24.4,7.4,5,28.2,5,53.9v76.1c0,15,6.6,28.4,17.2,37.3,7.3,7.3,14.6,14.6,21.9,21.9,9.3,10,22.8,15.9,36.6,15.8,17.3,0,49.3,0,66,0,4.2,0,6.3,0,10.2,0,25.3-.3,46.5-20.8,48-45.5.4-9.2,0-43.2.2-67ZM172.6,128.2c0,11.4-4.4,22.1-12.4,30.1-8,8-18.7,12.4-30.1,12.4H57.7c-11.4,0-22.1-4.4-30.1-12.4-8-8-12.4-18.7-12.4-30.1V55.7c0-11.4,4.4-22.1,12.4-30.1,8-8,18.7-12.4,30.1-12.4h72.4c11.4,0,22.1,4.4,30.1,12.4,8,8,12.4,18.7,12.4,30.1v72.5Z"/></svg>