<?xml version="1.0" encoding="UTF-8"?><svg id="a" xmlns="http://www.w3.org/2000/svg" viewBox="0 0 210 210"><defs><style>.b{fill:none;}</style></defs><path class="b" d="M49.5,98c.2.2,1.5,1.2,1.5,1.2,3.3,2.7,8.7,2.7,12.1.1,10-7.6,21.1-16.4,24.5-19.1.6-.5,1.5-.4,2,.1,0,0,6.8,6.5,9,8.7.6.5.7,1.4.2,2.1-2.4,3.3-10.1,13.4-18.2,25.1-3.9,5.7-2,9.2.8,12.3q.8.9,1.6,1.7l17.5,12.6s22-62.1,29.6-83.7c2.2-6.2-3.7-12.2-10-10.1-27.8,9.4-83.5,28.4-86.4,29.5-1.3.5,8.2,12.9,15.6,19.4Z"/><path d="M205,92.4c0-5.6,0-8.5,0-13.5-.3-12.9-5.9-25.1-14.7-33.8h-.1c-7.4-7.5-14.8-14.9-22.2-22.4-1.7-2-3.6-3.8-5.6-5.4-7.2-6.2-16-10.5-25.8-11.8-2.7-.3-4.9-.5-7.2-.5-16.3,0-60.4,0-72.4,0h-1.1c-.4,0-.8,0-1.1,0,0,0,0,0,0,0C27.6,4.5,4.5,27.5,5.1,54.6c.3,7-.2,47.5,0,70.4,0,3.2,0,6,.1,8.3.9,13.2,7.1,24.7,16.3,33.3.2.2.5.5.7.7,7.3,7.3,14.6,14.6,21.9,21.9,9.3,10,22.8,15.9,36.6,15.8,17.3,0,49.3,0,66,0,4.2,0,6.3,0,10.2,0,25.3-.3,46.5-20.8,48-45.5.4-9.2,0-43.2.2-67ZM120.2,49.1c6.2-2.1,12.2,3.9,10,10.1-7.7,21.6-29.6,83.7-29.6,83.7l-17.5-12.6q-.8-.8-1.6-1.7c-2.8-3.2-4.8-6.6-.8-12.3,8.1-11.7,15.8-21.8,18.2-25.1.5-.6.4-1.5-.2-2.1-2.3-2.2-9-8.7-9-8.7-.6-.5-1.4-.6-2-.1-3.4,2.7-14.5,11.5-24.5,19.1-3.4,2.6-8.8,2.6-12.1-.1,0,0-1.2-1-1.5-1.2-7.4-6.5-16.9-18.9-15.6-19.4,2.9-1.1,58.6-20,86.4-29.5Z"/></svg>