<?xml version="1.0" encoding="UTF-8"?><svg id="a" xmlns="http://www.w3.org/2000/svg" viewBox="0 0 210 210"><defs><style>.b{fill:none;}</style></defs><path class="b" d="M47.7,45.7l22.1,45.1-21.3,47.3c-.4.6,1.4,1.1,5.3,1.5,3.9.4,7.2.5,9.8.5,10.7,0,16.5-1.3,17.5-3.8l9.3-26.9,10.2,26.1c1.1,3.1,7.4,4.6,19,4.6s6.5-.2,10.6-.6h0c4.2-.4,6.1-.8,5.9-1.3l-24-45.2,23.2-47.3c0-.4-1.9-.8-5.8-1.2-3.9-.4-7.1-.6-9.8-.6-10.3,0-16,1.4-17,4.1l-10.8,23.6-9.4-23c-1.1-3.3-7.4-4.9-18.8-4.9s-6.3.2-10.3.6c-4,.4-5.9.8-5.7,1.3Z"/><path d="M205,92.4c0-5.6,0-8.5,0-13.5-.3-12.9-5.9-25.1-14.7-33.8h-.1c-7.8-7.9-15.6-15.7-23.5-23.6-8.9-10.2-22-16.6-36.8-16.6H53.9c-.4,0-.9,0-1.3,0-.2,0-.5,0-.7,0-.7,0-1.3,0-2,.1-.1,0-.3,0-.4,0C24.4,7.4,5,28.2,5,53.9v76.1c0,15,6.6,28.4,17.2,37.3,7.3,7.3,14.6,14.6,21.9,21.9,9.3,10,22.8,15.9,36.6,15.8,17.3,0,49.3,0,66,0,4.2,0,6.3,0,10.2,0,25.3-.3,46.5-20.8,48-45.5.4-9.2,0-43.2.2-67ZM53.4,44.4c4-.4,7.5-.6,10.3-.6,11.5,0,17.7,1.6,18.8,4.9l9.4,23,10.8-23.6c1.1-2.7,6.8-4.1,17-4.1s5.9.2,9.8.6c3.9.4,5.8.8,5.8,1.2l-23.2,47.3,24,45.2c.3.5-1.7.9-5.9,1.3h0c-4.2.4-7.7.6-10.6.6-11.5,0-17.9-1.5-19-4.6l-10.2-26.1-9.3,26.9c-.9,2.6-6.7,3.8-17.5,3.8s-5.9-.2-9.8-.5c-3.9-.4-5.7-.9-5.3-1.5l21.3-47.3-22.1-45.1c-.3-.5,1.6-.9,5.7-1.3Z"/></svg>