<?xml version="1.0" encoding="UTF-8"?>
<svg id="a" data-name="Layer 1" xmlns="http://www.w3.org/2000/svg" width="210" height="210" viewBox="0 0 210 210">
  <path d="M130.182,13.281H57.749c-11.406,0-22.08,4.394-30.056,12.373-7.976,7.979-12.369,18.656-12.369,30.065v72.456c0,11.409,4.393,22.087,12.369,30.065,7.976,7.979,18.65,12.373,30.056,12.373h72.433c11.406,0,22.08-4.394,30.056-12.373,7.976-7.979,12.368-18.656,12.368-30.065V55.719c0-11.409-4.393-22.087-12.368-30.065-7.976-7.979-18.65-12.373-30.056-12.373ZM131.01,125.787c0,.782-.812,1.627-2.124,1.632l-8.074-.504c-1.298,0-2.136-.839-2.136-2.136v-8.062c0-.371.434-1.283.895-1.744.373-.374.717-.392,1.702-.394l4.578.506h4.031c.371,0,1.283.434,1.744.895.391.391.391,1.305.394,1.697l-1.01,8.11ZM132.037,112.061c-.386,1.159-1.107,1.748-2.143,1.753l-7.571-.504c-1.298,0-2.136-.838-2.136-2.135v-34.264c0-.371.434-1.283.896-1.744.375-.375,1.229-.391,1.686-.391,1.848.539,14.213,1.512,15.678,1.512.849,0,1.263.415,1.744.895.377.378.391,1.241.391,1.695l-8.546,33.184ZM145.663,61.119l-.041.081v.091q0,.345-.434.788l-3.527,5.039-.064.101-.005.112c-.005.127-.064.127-.121.127h-.206l-1.074,1.625c-.48.481-.895.895-1.743.895h-9.574l-1.664.535c-3.257,1.396-28.803,21.549-30.44,25.916l-.025.135c0,2.023.025,12.356.506,17.17l.03.302,15.468,2.059c.793,0,1.632.839,1.634,1.674l1.005,9.027v1.099l.041.081c.13.26.121.513-.027.752-.266.43-.912.708-1.645.708h-54.924c-.37,0-1.283-.434-1.744-.895-.374-.374-.392-.717-.395-1.702l1.011-9.112c0-.793.839-1.632,1.685-1.635l14.4-2.057.036-.291c.509-4.072.508-14.687-.002-17.747l-.035-.109c-2.104-4.208-23.247-30.331-29.812-36.39l-.11-.102h-10.732c-1.298,0-2.136-.839-2.136-2.136v-7.558c0-1.297.838-2.135,2.136-2.135h44.846c1.297,0,2.135.838,2.135,2.135v7.558c0,1.297-.838,2.136-2.135,2.136h-7.304l.443.609c3.22,4.428,8.021,10.91,12.607,16.642,1.969,2.46,4.004,5.004,4.996,6.986l.226.451,16.234-14.611h-7.551c-.823,0-1.698-.878-2.154-1.759l-1.493-7.431c0-.439,0-1.353.392-1.744.48-.481.895-.895,1.744-.895h47.869c.786,0,1.632.353,1.632,1.128v.159l.113.112c.379.379.349,1.233-.072,2.077Z" fill="none"/>
  <path d="M204.974,92.388c-.045-5.594.068-8.47-.036-13.492-.316-12.917-5.852-25.091-14.66-33.751l-.109-.112c-6.099-6.12-12.206-12.223-18.322-18.339-1.699-2.44-3.613-4.753-5.755-6.896-9.539-9.542-22.293-14.798-35.909-14.798H57.749c-.319,0-.635.017-.953.023-.923-.002-1.652-.003-2.146-.006-.69-.013-1.376-.001-2.061.016-.229.006-.459.008-.687.017-.666.026-1.328.068-1.987.122-.13.01-.261.018-.391.029C24.438,7.387,5,28.211,5,53.907v76.078c0,15.02,6.648,28.371,17.177,37.316,7.316,7.319,14.582,14.589,21.923,21.929,9.327,9.959,22.809,15.945,36.626,15.763,17.334-.033,49.273.024,65.968,0,4.25-.03,6.331.045,10.162-.024,25.316-.331,46.464-20.787,47.958-45.537.357-9.163.079-43.221.161-67.044ZM172.607,128.174c0,11.409-4.393,22.087-12.368,30.065-7.976,7.979-18.65,12.373-30.056,12.373H57.749c-11.406,0-22.08-4.394-30.056-12.373-7.976-7.979-12.369-18.656-12.369-30.065V55.719c0-11.409,4.393-22.087,12.369-30.065,7.976-7.979,18.65-12.373,30.056-12.373h72.433c11.406,0,22.08,4.394,30.056,12.373,7.976,7.979,12.368,18.656,12.368,30.065v72.456Z"/>
  <path d="M145.622,58.93v-.159c0-.775-.846-1.128-1.632-1.128h-47.869c-.849,0-1.264.415-1.744.895-.392.392-.392,1.306-.392,1.744l1.493,7.431c.456.881,1.331,1.759,2.154,1.759h7.551l-16.234,14.611-.226-.451c-.992-1.982-3.027-4.526-4.996-6.986-4.586-5.732-9.387-12.214-12.607-16.642l-.443-.609h7.304c1.297,0,2.135-.839,2.135-2.136v-7.558c0-1.297-.838-2.135-2.135-2.135h-44.846c-1.298,0-2.136.838-2.136,2.135v7.558c0,1.297.838,2.136,2.136,2.136h10.732l.11.102c6.565,6.059,27.708,32.181,29.812,36.39l.035.109c.51,3.06.511,13.674.002,17.747l-.036.291-14.4,2.057c-.846.004-1.685.843-1.685,1.635l-1.011,9.112c.002.985.02,1.328.395,1.702.461.461,1.373.895,1.744.895h54.924c.733,0,1.379-.278,1.645-.708.148-.239.157-.492.027-.752l-.041-.081v-1.099l-1.005-9.027c-.002-.835-.841-1.674-1.634-1.674l-15.468-2.059-.03-.302c-.481-4.814-.506-15.148-.506-17.17l.025-.135c1.637-4.367,27.184-24.52,30.44-25.916l1.664-.535h9.574c.848,0,1.263-.415,1.743-.895l1.074-1.625h.206c.056,0,.115,0,.121-.127l.005-.112.064-.101,3.527-5.039q.434-.443.434-.788v-.091l.041-.081c.421-.843.451-1.697.072-2.077l-.113-.112Z"/>
  <path d="M138.448,76.287c-1.466,0-13.831-.972-15.678-1.512-.458,0-1.311.016-1.686.391-.462.461-.896,1.373-.896,1.744v34.264c0,1.297.838,2.135,2.136,2.135l7.571.504c1.035-.005,1.757-.595,2.143-1.753l8.546-33.184c0-.455-.014-1.318-.391-1.695-.48-.48-.895-.895-1.744-.895Z"/>
  <path d="M129.881,115.086h-4.031l-4.578-.506c-.985.002-1.328.02-1.702.394-.461.461-.895,1.373-.895,1.744v8.062c0,1.297.838,2.136,2.136,2.136l8.074.504c1.312-.005,2.124-.849,2.124-1.632l1.01-8.11c-.003-.391-.003-1.305-.394-1.697-.461-.461-1.373-.895-1.744-.895Z"/>
</svg>