<?xml version="1.0" encoding="UTF-8"?><svg id="a" xmlns="http://www.w3.org/2000/svg" viewBox="0 0 210 210"><defs><style>.b{fill:none;}</style></defs><polygon class="b" points="82.5 75.7 82.5 108.2 112.6 92 82.5 75.7"/><path class="b" d="M57.7,170.6h72.4c11.4,0,22.1-4.4,30.1-12.4,8-8,12.4-18.7,12.4-30.1V55.7c0-11.4-4.4-22.1-12.4-30.1-8-8-18.7-12.4-30.1-12.4H57.7c-11.4,0-22.1,4.4-30.1,12.4-8,8-12.4,18.7-12.4,30.1v72.5c0,11.4,4.4,22.1,12.4,30.1,8,8,18.7,12.4,30.1,12.4ZM39.2,68.8v-.3c0,0,.2-.3.2-.3,2.7-6.8,10.6-10.1,16.6-10.8h.1c23.7-2.2,47.8-2.2,71.5,0h.1c6,.8,14,4.1,16.7,10.8v.3c.1,0,.2.3.2.3,3.4,15.4,3.4,31,0,46.4v.4c0,0-.2.3-.2.3-2.7,6.7-10.6,10-16.6,10.7h-.1c-11.9,1.1-23.8,1.7-35.8,1.7s-23.9-.6-35.8-1.7h-.1c-6-.8-14-4.1-16.7-10.8v-.3c-.1,0-.2-.3-.2-.3-3.4-15.4-3.4-31,0-46.4Z"/><path d="M205,92.4c0-5.6,0-8.5,0-13.5-.3-12.9-5.9-25.1-14.7-33.8h-.1c-6.1-6.2-12.2-12.3-18.3-18.5-1.7-2.4-3.6-4.8-5.8-6.9-9.5-9.5-22.3-14.8-35.9-14.8H53.9c-.4,0-.9,0-1.3,0-.2,0-.5,0-.7,0-.7,0-1.3,0-2,.1-.1,0-.3,0-.4,0C24.4,7.4,5,28.2,5,53.9v76.1c0,15,6.6,28.4,17.2,37.3,7.3,7.3,14.6,14.6,21.9,21.9,9.3,10,22.8,15.9,36.6,15.8,17.3,0,49.3,0,66,0,4.2,0,6.3,0,10.2,0,25.3-.3,46.5-20.8,48-45.5.4-9.2,0-43.2.2-67ZM15.3,128.2V55.7c0-11.4,4.4-22.1,12.4-30.1,8-8,18.7-12.4,30.1-12.4h72.4c11.4,0,22.1,4.4,30.1,12.4,8,8,12.4,18.7,12.4,30.1v72.5c0,11.4-4.4,22.1-12.4,30.1-8,8-18.7,12.4-30.1,12.4H57.7c-11.4,0-22.1-4.4-30.1-12.4-8-8-12.4-18.7-12.4-30.1Z"/><path d="M39.2,115.4v.3c2.7,6.8,10.7,10.1,16.8,10.8h.1c11.9,1.1,23.8,1.7,35.8,1.7s23.9-.6,35.8-1.7h.1c6-.8,13.9-4,16.6-10.7v-.3c.1,0,.2-.4.2-.4,3.4-15.4,3.4-31,0-46.4v-.3c0,0-.2-.3-.2-.3-2.6-6.8-10.6-10.1-16.7-10.8h-.1c-23.7-2.2-47.8-2.2-71.5,0h-.1c-6,.8-14,4.1-16.6,10.8v.3c-.1,0-.2.3-.2.3-3.4,15.4-3.4,31,0,46.4v.3ZM82.5,75.7l30.1,16.3-30.1,16.3v-32.5Z"/></svg>