<?xml version="1.0" encoding="UTF-8"?><svg id="a" xmlns="http://www.w3.org/2000/svg" viewBox="0 0 400 400"><rect x="196" y="187.7" width="71.8" height="57.8"/><rect x="112.3" y="187.7" width="71.8" height="57.8"/><path d="M361.5,110.5v-28.9l-2,.5v-2.5l-2,.5v-2.5l-2,.5v-2.5l-2,.5v-2.5l-2,.5v-2.5l-2,.5v-2.5l-2,.5v-2.5l-2,.5v-2.5l-2,.5v-2.5l-2,.5v-2.5l-2,.5v-2.5l-2,.5v-2.5l-2,.5v-2.5l-2,.5v-2.5l-2,.5v-2.5L52.6,127.6v28.9l2-.5v2.5l2-.5v2.5l2-.5v2.5l2-.5v2.5l2-.5v2.5l2-.5v2.5l2-.5v2.5l2-.5v2.5l2-.5v2.5l2-.5v2.5l2-.5v2.5l2-.5v2.5l2-.5v2.5l2-.5v2.5l2-.5v2.5l12.2-3.3c-.2,1.5-.4,3-.4,4.6v111.5c0,8.2,3.6,15.6,9.2,20.7.6.7,1.3,1.4,2,2,.6.7,1.3,1.4,2,2,.6.7,1.3,1.4,2,2,.6.7,1.3,1.4,2,2,.6.7,1.3,1.4,2,2,.6.7,1.3,1.4,2,2,.6.7,1.3,1.4,2,2,.6.7,1.3,1.4,2,2,.6.7,1.3,1.4,2,2,.6.7,1.3,1.4,2,2,.6.7,1.3,1.4,2,2,.6.7,1.3,1.4,2,2,.6.7,1.3,1.4,2,2,.6.7,1.3,1.4,2,2,5.1,5.6,12.5,9.2,20.7,9.2h139.4c15.4,0,27.9-12.5,27.9-27.9v-111.5c0-8.2-3.6-15.6-9.2-20.7-.6-.7-1.3-1.4-2-2-.6-.7-1.3-1.4-2-2-.6-.7-1.3-1.4-2-2-.6-.7-1.3-1.4-2-2-.6-.7-1.3-1.4-2-2-.6-.7-1.3-1.4-2-2-.6-.7-1.3-1.4-2-2-.6-.7-1.3-1.4-2-2-.6-.7-1.3-1.4-2-2-.6-.7-1.3-1.4-2-2-.6-.7-1.3-1.4-2-2-.6-.7-1.3-1.4-2-2-.6-.7-1.3-1.4-2-2-.6-.7-1.3-1.4-2-2-5.1-5.6-12.5-9.2-20.7-9.2h-25.8v-15.2l125.5-34.2ZM259.7,165.8c11,0,19.9,8.9,19.9,19.9v111.5c0,11-8.9,19.9-19.9,19.9H120.3c-11,0-19.9-8.9-19.9-19.9v-111.5c0-11,8.9-19.9,19.9-19.9h63.8v-56l-125.5,34.2v-12.3L321.4,60.1v12.3l-125.5,34.2v59.3h63.8Z"/></svg>