<?xml version="1.0" encoding="UTF-8"?><svg id="a" xmlns="http://www.w3.org/2000/svg" viewBox="0 0 400 400"><path d="M177,116.1v-48.6c0-7.7,15.7-16,22.7-10.1,45,26.2,95,47.2,139.6,73.6,11.5,6.8,18.1,12.9,19.4,27.3,4.3,50.3-3.3,106.7,0,157.7-1.7,15.2-13.3,25.8-28.3,27.2-45.7,4.2-97.6-3.3-143.9,0-6.8-.4-12.8-3-18.1-7.1-37-34.7-82.2-64.8-118.7-99.5-5.5-5.3-8.1-6.9-8.9-15.1-2.7-28.8,2.1-61.7,0-90.9-.8-5.1,7.6-14.5,12-14.5h124.3ZM207.3,248.6l81.9-72.4-81.9-71.4v29.6c0,3.5-8.5,12-12,12h-124.3v60.6h124.3c3.4,0,12,8.5,12,12v29.6Z"/></svg>