<?xml version="1.0" encoding="UTF-8"?>
<svg id="a" data-name="Layer 1" xmlns="http://www.w3.org/2000/svg" width="210" height="210" viewBox="0 0 210 210">
  <path d="M117.75,76.375c0-.807-.444-1.549-1.154-1.929-.713-.38-1.572-.338-2.247.109l-13.125,8.75c-1.004.671-1.278,2.027-.607,3.034.671,1.004,2.034,1.269,3.033.607l9.724-6.483v39.663c0,1.209.979,2.188,2.188,2.188s2.188-.979,2.188-2.188h0v-43.75Z" fill="none"/>
  <path d="M52.125,54.5h78.75v-8.75H52.125v8.75ZM115.562,47.937c1.208,0,2.188.979,2.188,2.188s-.979,2.188-2.188,2.188-2.188-.979-2.188-2.188.979-2.188,2.188-2.188ZM67.437,47.937c1.208,0,2.188.979,2.188,2.188s-.979,2.188-2.188,2.188-2.188-.979-2.188-2.188.979-2.188,2.188-2.188Z" fill="none"/>
  <path d="M85.604,98.25c3.547-2.352,5.896-6.372,5.896-10.937,0-7.238-5.887-13.125-13.125-13.125s-13.125,5.887-13.125,13.125c0,1.209.979,2.188,2.188,2.188s2.188-.979,2.188-2.188c0-4.826,3.926-8.75,8.75-8.75s8.75,3.924,8.75,8.75-3.926,8.75-8.75,8.75c-1.209,0-2.188.979-2.188,2.188s.978,2.188,2.188,2.188c4.824,0,8.75,3.924,8.75,8.75s-3.926,8.75-8.75,8.75-8.75-3.924-8.75-8.75c0-1.209-.979-2.188-2.188-2.188s-2.188.978-2.188,2.188c0,7.238,5.887,13.125,13.125,13.125s13.125-5.887,13.125-13.125c0-4.566-2.349-8.586-5.896-10.938Z" fill="none"/>
  <path d="M130.182,13.281H57.749c-11.406,0-22.08,4.394-30.056,12.373-7.976,7.979-12.369,18.656-12.369,30.065v72.456c0,11.409,4.393,22.087,12.369,30.065,7.976,7.979,18.65,12.373,30.056,12.373h72.433c11.406,0,22.08-4.394,30.056-12.373,7.976-7.979,12.368-18.656,12.368-30.065V55.719c0-11.409-4.393-22.087-12.368-30.065-7.976-7.979-18.65-12.373-30.056-12.373ZM143.919,130.266c.056.442.081.876.081,1.309,0,5.749-4.678,10.425-10.425,10.425H49.425c-5.746,0-10.425-4.676-10.425-10.425,0-.434.026-.867.081-1.297l4.272-32.029-4.272-32.016c-.056-.442-.081-.876-.081-1.31,0-3.488,1.737-6.562,4.375-8.456v-10.719c0-4.826,3.926-8.75,8.75-8.75h78.75c4.824,0,8.75,3.924,8.75,8.75v10.719c2.638,1.893,4.375,4.968,4.375,8.456,0,.434-.026.867-.081,1.297l-4.272,32.028,4.272,32.016Z" fill="none"/>
  <path d="M204.974,92.388c-.045-5.594.068-8.47-.036-13.492-.316-12.917-5.852-25.091-14.66-33.751l-.109-.112c-6.099-6.12-12.206-12.223-18.322-18.339-1.699-2.44-3.613-4.753-5.755-6.896-9.539-9.542-22.293-14.798-35.909-14.798H57.749c-.319,0-.635.017-.953.023-.923-.001-1.652-.003-2.146-.006-.69-.013-1.376-.001-2.061.016-.229.006-.459.008-.687.017-.666.026-1.328.068-1.987.122-.13.01-.261.018-.391.03C24.438,7.387,5,28.211,5,53.907v76.078c0,15.02,6.648,28.371,17.177,37.316,7.316,7.319,14.582,14.589,21.923,21.929,9.327,9.959,22.809,15.945,36.626,15.763,17.334-.033,49.273.024,65.968,0,4.25-.03,6.331.045,10.162-.024,25.316-.331,46.464-20.787,47.958-45.537.357-9.163.079-43.221.161-67.044ZM172.607,128.174c0,11.409-4.393,22.087-12.368,30.065-7.976,7.979-18.65,12.373-30.056,12.373H57.749c-11.406,0-22.08-4.394-30.056-12.373-7.976-7.979-12.369-18.656-12.369-30.065V55.719c0-11.409,4.393-22.087,12.369-30.065,7.976-7.979,18.65-12.373,30.056-12.373h72.433c11.406,0,22.08,4.394,30.056,12.373,7.976,7.979,12.368,18.656,12.368,30.065v72.456Z"/>
  <path d="M144,64.925c0-3.488-1.737-6.562-4.375-8.456v-10.719c0-4.826-3.926-8.75-8.75-8.75H52.125c-4.824,0-8.75,3.924-8.75,8.75v10.719c-2.638,1.893-4.375,4.968-4.375,8.456,0,.434.026.867.081,1.31l4.272,32.016-4.272,32.029c-.056.429-.081.863-.081,1.297,0,5.749,4.678,10.425,10.425,10.425h84.15c5.747,0,10.425-4.676,10.425-10.425,0-.434-.026-.867-.081-1.309l-4.272-32.016,4.272-32.028c.056-.429.081-.863.081-1.297ZM78.375,122.312c-7.238,0-13.125-5.887-13.125-13.125,0-1.209.979-2.188,2.188-2.188s2.188.978,2.188,2.188c0,4.826,3.926,8.75,8.75,8.75s8.75-3.924,8.75-8.75-3.927-8.75-8.75-8.75c-1.209,0-2.188-.979-2.188-2.188s.978-2.188,2.188-2.188c4.824,0,8.75-3.924,8.75-8.75s-3.926-8.75-8.75-8.75-8.75,3.924-8.75,8.75c0,1.209-.979,2.188-2.188,2.188s-2.188-.979-2.188-2.188c0-7.238,5.887-13.125,13.125-13.125s13.125,5.887,13.125,13.125c0,4.566-2.349,8.586-5.896,10.937,3.548,2.352,5.896,6.372,5.896,10.938,0,7.238-5.887,13.125-13.125,13.125ZM115.562,122.312c-1.209,0-2.188-.979-2.188-2.188v-39.663l-9.724,6.483c-1,.662-2.363.397-3.033-.607-.671-1.006-.397-2.363.607-3.034l13.125-8.75c.675-.447,1.534-.489,2.247-.109.709.38,1.154,1.122,1.154,1.929v43.75h0c0,1.209-.979,2.188-2.188,2.188ZM130.875,54.5H52.125v-8.75h78.75v8.75Z"/>
  <path d="M67.437,52.312c1.208,0,2.188-.979,2.188-2.188s-.979-2.188-2.188-2.188-2.188.979-2.188,2.188.979,2.188,2.188,2.188Z"/>
  <path d="M115.562,52.312c1.208,0,2.188-.979,2.188-2.188s-.979-2.188-2.188-2.188-2.188.979-2.188,2.188.979,2.188,2.188,2.188Z"/>
</svg>