<?xml version="1.0" encoding="UTF-8"?><svg id="a" xmlns="http://www.w3.org/2000/svg" viewBox="0 0 400 400"><path d="M79.9,253.7c-11.2-2.8-22.8-3.6-34.1-5.5-1.5-.3-6.9-.2-5.9-2.7l61.7-59.3c1.3-2.8-5-22.7-5.5-28.7-7-84.1,83.3-140.5,156.2-97.6,27.3,16.1,63.9,42.5,89.6,61.8,10.1,7.6,15.6,12.4,16.8,26,4.9,57.2-3.8,121.5,0,179.5-2,14.3-13,25-27.4,26.3-42.2,3.9-90.3-3-133.2,0-10.7-.9-17.6-5.5-24.3-13.6l-52.6-78-31.7,31.7-9.4-40ZM335.4,236.3l-65.4-66c-1.1-2.4,2.8-14.7,3.1-18.9,3.8-61.3-68.9-98.7-118.3-62.1-61.5,45.6-21.1,142.2,57.6,130.8,3.5-.5,7.2-3.1,10.7-1.5l62.9,65.3,7.9-41.5,41.5-6.1Z"/></svg>