<?xml version="1.0" encoding="UTF-8"?><svg id="a" xmlns="http://www.w3.org/2000/svg" viewBox="0 0 400 400"><path d="M338.8,131.4c-18.4-20.9-37.7-41.2-56-60-7.7-7.9-18-11.9-30.7-12-13.6,0-27.2-.1-40.8-.2-40-.3-81.3-.5-121.9.6-29.2.8-47.1,18.6-47.8,47.7-1,40.6-.8,82-.6,122,0,17.3.2,34.5.2,51.8,0,13.6,5.2,23.8,15.4,30.1,18.6,11.6,37.2,24.1,55.3,37,19.6,14,22.8,14.4,50.7,14.4h38.2c12.7,0,25.5,0,38.2,0,23.9,0,47.8,0,71.6,0h0c10,0,17.5-2.4,23.6-7.7,7-6,10.3-14.2,10.4-25.7.1-20.7.1-41.4,0-62.1v-49.6c0-21.6,0-43.9,0-65.9,0-6.2-1-14.8-6-20.5ZM145.5,85.5h50.6v51.1l-9.6.2c-4.7.1-9.8.2-14.8.3-2.8,0-5.7,0-8.6,0s-4.5,0-6.8,0h-11v-51.6ZM118.6,292.5h-3.7c-2.9,0-5.8,0-8.8,0-2.9,0-5.8,0-8.8,0s-7.6,0-11.4-.1c-11.1-.2-18.6-8.1-18.8-19.6-.1-7.2,0-14.4,0-21.8,0-3.2,0-6.5,0-9.9v-3.7h51.6v55ZM118.7,214.2h-51l-.2-9.6c-.1-4.8-.2-9.8-.3-14.9,0-5.1,0-10.1,0-15.3v-10.9h51.6v50.7ZM118.7,136.4h-50.8l-.3-8.2c-.2-3.9-.3-8-.4-12.2v-3.6c-.2-4.9-.3-10.1.1-15.2.7-7.6,5.5-12.2,13-12.1,7.7,0,15.4,0,23.6,0h14.8s0,51.2,0,51.2ZM196.1,292.2h-50.6v-54.8l9.7-.2c4.7-.1,9.7-.2,14.6-.3,5,0,10.1,0,15.3,0h11v55.3ZM196.4,214.2h-51.1l-.2-9.6c-.1-4.8-.2-9.8-.3-14.8,0-5,0-10.1,0-15.3v-10.9h51.6v50.7ZM219.4,85.2h3.7c3.3,0,6.6,0,9.9,0,7.3,0,14.5,0,21.7,0,12.4.2,19.6,7.7,19.7,20.5,0,5.9,0,11.8,0,18v12.4h-55.1v-51ZM273.8,162.9v51.6h-54.4v-51.5h9.8c5.3,0,10.9,0,16.5-.1,5.4,0,10.9,0,16.5,0h11.6ZM274.4,270.2c-.4,12.6-9.2,21.8-21.4,22.3-3.8.2-7.6.2-11.5.2s-6,0-9,0c-3.2,0-6.5,0-9.8,0h-3.7v-15.1c0-8.7,0-17.1,0-25.6.1-9.9,4.6-14.6,14-14.8,8.5-.2,17-.1,25.9,0,3.9,0,7.8,0,11.9,0h3.7v3.7c0,3.5,0,6.8,0,10,0,6.8,0,13.2,0,19.5Z"/></svg>