<?xml version="1.0" encoding="UTF-8"?><svg id="a" xmlns="http://www.w3.org/2000/svg" viewBox="0 0 400 400"><path d="M175.9,36.5l37.8,34.4c9.4-5.1,16-20.5,28.1-19.6,9.4.7,33.1,28.7,41.4,36.4,20.8,19.2,46.8,38.5,66.1,58.5,5.6,5.8,8.5,12.3,9.2,20.4,4.7,54.3-3.5,115.2-.1,170.1-3.1,14.7-13.8,24.3-28.8,25.4-57.2,4.4-120-3.5-177.7,0-7.6,0-14.2-7.4-19.7-12.3-31.4-28.1-60.3-62.4-90.9-91.6-1.2-2.8-1.3-5.9-.9-8.9,1.1-7.2,22.8-26.9,28.9-34,39.7-45.9,76.3-101.1,94.7-159.4,2.2-6.9,1.7-14.1,7.1-19.4h4.9ZM241.3,236.3l73.9-74.4-74.5-74.8-72.2,72.7c10.6-3.7,19.8-5.4,30.8-1.8s41.7,33.2,45.3,45.9c3.4,11.7,1.2,21.5-3.3,32.3ZM227.7,249.9c-16.6,7.5-32.3,7.4-46.9-4.3-15-12.1-36.8-33.4-33.3-54.3l3.1-14.1-74.6,74.6,75.7,74.5,76-76.4Z"/><path d="M134.4,269.2c-12.3-11.7,3-33.5,18.7-23,17.6,11.7-3.5,37.6-18.7,23Z"/><path d="M247.1,139.1c20.2-2.9,22.9,27.2,4.5,29.2-20,2.2-22.6-26.6-4.5-29.2Z"/></svg>