<?xml version="1.0" encoding="UTF-8"?><svg id="a" xmlns="http://www.w3.org/2000/svg" viewBox="0 0 400 400"><path d="M172.9,62.9c22.6-6.9,50.9-7.8,69.9,8.2,15.9-13.3,35.9-16.2,54.6-7.1,9.2,4.5,52.9,39.9,57.5,48.1,2.3,4.1,3.8,9.2,4.2,13.9v202.9c-2.5,16.7-14.3,28.4-31.3,29.9l-178.6-.7c-5-1.7-9.7-3.8-13.8-7-30.3-23.3-57.6-63.7-87.3-89.2-1.5-3.3-4-6.9-4.8-10.4-2.8-11.7-2.5-67.5-1-81s4-10.1,3.9-12.3-3.3-6.8-3.9-11.3c-1.9-17.4-1.7-57.3,0-75.1,1.3-14.7,12.3-27.7,27.3-29.7,12.5-1.6,72.8-1.7,83.3,1.2,9,2.5,18.2,10.1,20.1,19.5ZM142.3,75.5h-66.7v66.7h66.7v-66.7ZM189.2,92.4c-18,3.7-17.4,30.1,1.2,32.9,16.4,2.5,40.6.5,34.7-22.2-3.5-13.2-25.1-12.9-35.8-10.8ZM272.5,92.4c-20.4,3.4-16,35.5,5.1,33s17.4-36.7-5.1-33ZM142.3,175.5h-66.7v66.7h66.7v-66.7ZM189.2,192.5c-18,3.7-17.4,30.1,1.2,32.9,16.4,2.5,40.6.5,34.7-22.2s-25.1-12.9-35.8-10.8ZM272.5,192.5c-20.4,3.4-16,35.5,5.1,33,21.6-2.6,17.4-36.7-5.1-33Z"/></svg>