<?xml version="1.0" encoding="UTF-8"?><svg id="a" xmlns="http://www.w3.org/2000/svg" viewBox="0 0 400 400"><path d="M368.2,108.5c-1.7-16.2-33.7-50.1-48.8-55.8-25.5-9.6-69,0-96.9-3.5-10.2-7.9-20.1-15.4-33.5-16.7-35.4-3.5-76.6,2.3-112.6.3-22.5,4.1-39.1,21.1-42.8,43.7,3.9,57.1-5.7,122.2-.1,178.4.9,9.1,5.6,19.4,11.2,26.5,27,23.1,52.2,54.8,79.5,76.8,7.6,6.1,13.1,8.4,23,9.1,61.2,4.6,128-3.6,189.8,0,16.5-1.2,30.2-14.8,31.4-31.4V108.5ZM136,277.9c-1.4,5.5,1.1,11.4-2.7,15.4-8.4-6.4-20.4-24.8-30.8-26.4-12.7-2-30.1,5-34.9-12.5V78.4c2.1-7.8,7.5-11.6,15.4-12.5,31.6-3.6,69.6,2.7,101.8,0,3.6.4,8.8,2.1,11.4,4.7,1.7,1.7,2.7,4.6,3.7,6.8l.3,177c-7.5,26.6-58-1.1-64.3,23.6ZM318.1,249.4c-1.9,20.7-15.9,15.5-29.9,17.5-11.4,1.6-26.8,22.7-37.1,29.2.9-14.3-1.8-30-19.5-29.3-.8-.7,2.8-9.1,2.8-10.5V82.7h70.4c6,1.1,13.5,9.5,13.2,16-3.4,48.4,4.5,103,0,150.7Z"/><path d="M130.8,93.2c-11.4,0-21.1,1.3-29.1,4v29.7c8.1-3.5,18.1-5.2,30.1-5.2s8.9.8,10.8,2.3c1.9,1.5,2.8,4.1,2.8,7.7v13.6c0,4.5-1.3,7.5-4,9-2.7,1.5-7.3,2.3-14,2.3h-12.3l1.5,37.2h25.7l1.5-14.2c11.6,0,19.8-2.8,24.7-8.3,4.9-5.5,7.3-14,7.3-25.4v-17.6c0-23.4-15-35.2-45-35.2Z"/><path d="M129.8,209.5c-11.6,0-17.5,5.5-17.5,16.4s5.8,16.4,17.5,16.4,17.5-5.5,17.5-16.4-5.8-16.4-17.5-16.4Z"/><polygon points="284.9 198.1 288 125.1 263.2 125.1 266.3 198.1 284.9 198.1"/><path d="M275.8,209.7c-8.6,0-12.9,4.1-12.9,12.2s4.3,12.2,12.9,12.2,12.9-4.1,12.9-12.2-4.3-12.2-12.9-12.2Z"/></svg>