<?xml version="1.0" encoding="UTF-8"?><svg id="a" xmlns="http://www.w3.org/2000/svg" viewBox="0 0 200 200"><path d="M144.9,114s0,0,0,0h0c0,0-23.9-13.9-23.9-13.9l24-13.9h0c1.3-.8,1.7-2.5.9-3.8,0,0,0,0,0,0h0s-7.6-13.2-7.6-13.2h0c-.8-1.3-2.4-1.7-3.7-1h0s-24.1,13.9-24.1,13.9v-27.8h0c0-1.5-1.3-2.7-2.8-2.7h-.1s-15.3,0-15.3,0h0c-1.5,0-2.7,1.2-2.7,2.7h0v27.8l-24.1-13.9h0c-1.3-.7-3-.2-3.7,1.1,0,0,0,0,0,0h0s-7.6,13.2-7.6,13.2h0c-.7,1.3-.3,2.9,1,3.7h0,0s0,0,0,0h0l24.1,13.9-23.5,13.6c-.2,0-.4.1-.6.2-1.3.8-1.8,2.5-1,3.8h0l7.9,13.7h0c.8,1,2.3,1.3,3.5.6,0,0,0,0,0,0h0c0,0,24-13.8,24-13.8v27.1c0,.2,0,.4,0,.6,0,1.5,1.2,2.8,2.8,2.8h15.8c1.3-.3,2.3-1.4,2.3-2.8s0,0,0,0h0v-27.7l23.4,13.5c.2.1.3.3.5.4,1.3.8,3,.3,3.8-1h0l7.6-13.3h0s.2-.4.2-.4h0c.4-1.3,0-2.7-1.2-3.4l.3.3Z"/></svg>