<?xml version="1.0" encoding="UTF-8"?>
<svg id="a" data-name="Layer 1" xmlns="http://www.w3.org/2000/svg" width="210" height="210" viewBox="0 0 210 210">
  <path d="M124.508,38.083h-6.121v.365h-.531v8.817h-4.91v-9.182h-6.121v.365h-.531v8.817h-4.911v-9.182h-6.121v.365h-.531v8.817h-4.911v-9.182h-6.121v.365h-.531v8.817h-4.91v-9.182h-6.121v.365h-.531v8.817h-11.032v.365h-.531v23.148l-28.974,57.744v4.194h28.974v10.202h75.496v-.365h.531V47.265h-11.562v-9.182ZM129.418,136.796h-63.253v-4.081h40.4v-2.744l22.853-45.544v52.369ZM83.602,101.083c-5.072-3.832-6.082-11.075-2.25-16.147,3.831-5.072,11.075-6.082,16.147-2.25l-3.69,4.884c-2.379-1.797-5.776-1.324-7.574,1.055-1.797,2.379-1.323,5.776,1.055,7.574,5.072,3.832,6.082,11.075,2.25,16.147-2.263,2.996-5.719,4.575-9.213,4.575-2.42,0-4.859-.757-6.935-2.325l3.689-4.884c2.378,1.797,5.776,1.324,7.574-1.055,1.797-2.379,1.323-5.776-1.056-7.574ZM129.418,53.751v14.283h-63.253v-14.283h5.441v8.57h6.121v-8.57h5.441v8.57h6.121v-8.57h5.441v8.57h6.121v-8.57h5.441v8.57h6.121v-8.57h5.441v8.57h6.121v-8.57h5.441Z" fill="none"/>
  <polygon points="106.565 132.715 66.165 132.715 66.165 136.796 129.418 136.796 129.418 84.427 106.565 129.971 106.565 132.715"/>
  <path d="M77.084,109.711l-3.689,4.884c2.076,1.568,4.514,2.325,6.935,2.325,3.494,0,6.949-1.579,9.213-4.575,3.831-5.072,2.822-12.316-2.25-16.147-2.379-1.797-2.852-5.195-1.055-7.574,1.797-2.379,5.195-2.852,7.574-1.055l3.69-4.884c-5.072-3.832-12.316-2.822-16.147,2.25-3.832,5.072-2.822,12.316,2.25,16.147,2.379,1.797,2.852,5.195,1.056,7.574-1.798,2.379-5.196,2.852-7.574,1.055Z"/>
  <polygon points="123.977 62.321 117.855 62.321 117.855 53.751 112.415 53.751 112.415 62.321 106.293 62.321 106.293 53.751 100.852 53.751 100.852 62.321 94.731 62.321 94.731 53.751 89.29 53.751 89.29 62.321 83.168 62.321 83.168 53.751 77.728 53.751 77.728 62.321 71.606 62.321 71.606 53.751 66.165 53.751 66.165 68.034 129.418 68.034 129.418 53.751 123.977 53.751 123.977 62.321"/>
  <path d="M204.973,92.388c-.045-5.594.068-8.47-.036-13.492-.316-12.917-5.853-25.091-14.66-33.751l-.11-.112c-7.805-7.832-15.618-15.629-23.455-23.473-8.936-10.169-22.049-16.559-36.766-16.559H53.892c-.437,0-.869.021-1.303.032-.229.006-.459.008-.687.017-.666.026-1.328.068-1.987.122-.131.01-.261.018-.392.03C24.439,7.387,5,28.211,5,53.907v76.078c0,15.02,6.648,28.37,17.176,37.315,7.317,7.319,14.583,14.59,21.925,21.93,9.327,9.959,22.809,15.946,36.626,15.763,17.334-.033,49.273.024,65.967,0,4.25-.03,6.331.045,10.162-.024,25.316-.331,46.464-20.787,47.958-45.537.356-9.163.079-43.221.161-67.044ZM136.07,142.552h-.531v.365H60.044v-10.202h-28.974v-4.194l28.974-57.744v-23.148h.531v-.365h11.032v-8.817h.531v-.365h6.121v9.182h4.91v-8.817h.531v-.365h6.121v9.182h4.911v-8.817h.531v-.365h6.121v9.182h4.911v-8.817h.531v-.365h6.121v9.182h4.91v-8.817h.531v-.365h6.121v9.182h11.562v95.287Z"/>
</svg>