<?xml version="1.0" encoding="UTF-8"?><svg id="a" xmlns="http://www.w3.org/2000/svg" viewBox="0 0 400 400"><path d="M201.3,87.5c-13.7.7-28.2,12-26.7,26.7,14.9.6,27.3-11.8,26.7-26.7Z"/><path d="M213.9,127.6c-6.5-7.4-14.3-11.8-24.5-10.4-5.1.7-8.8,4.2-14.2,4.2-10.8,0-16.1-10.1-30.1-.7-21,13.9-13.4,45.9,2,61.1,13.7,13.6,16.6,3.1,28.2,2.7,7.7-.2,12.2,6.3,20.4,3.7,6.7-2.2,16.4-17.8,18.2-24.7-17.7-5.1-16.9-29.4,0-35.9Z"/><path d="M367.1,126.5c0-3.3-1.7-7.1-4.4-9.2l-.2-.2c-22.1-22-44-44.4-66.3-66.1-2-1.5-4.7-2.3-7.3-2.4h-19.1c-56.5,0-217.3,0-219.3,0-6.3.1-11.6,5.1-12.1,11.4-.1,38,0,100.4,0,136.5,0,13,0,21.6,0,22.1,0,2.9,1.1,6.1,3.1,8.3,21.6,21.7,43.3,43.3,65,65,2.4,2.7,5.6,4.7,9.3,4.8,1.8.2,4.7-.2,6.5.1,1,2.8,2.4,5.4,4.7,7.3,21.1,21.1,42.2,42.2,63.3,63.3,3.4,4.1,7.8,5.3,13.1,4.9,13.9,0,70.6,0,72.3,0,6.5.1,101.5-90.9,101.5-90.9,0,0-10.2-152-10.1-154.9ZM296.4,221.9c0,.9-.8,1.7-1.7,1.7h-85.3c-12.7,0-23.1,10.4-23.1,23.1v14.6c0,12.7,10.4,23.1,23.1,23.1h6.4c.9,0,1.7.8,1.7,1.7v11.3c0,.9-.8,1.7-1.7,1.7h-75.4c-.9,0-1.7-.8-1.7-1.7v-11.3c0-.9.8-1.7,1.7-1.7h4.8c12.7,0,23.1-10.4,23.1-23.1v-14.6c0-12.7-10.4-23.1-23.1-23.1H56.6c-.9,0-1.7-.8-1.7-1.7V64.3c0-.9.8-1.7,1.7-1.7h238.1c.9,0,1.7.8,1.7,1.7v157.6Z"/></svg>