<?xml version="1.0" encoding="UTF-8"?><svg id="a" xmlns="http://www.w3.org/2000/svg" viewBox="0 0 400 400"><path d="M246,51.2l33.3,23.3c11.3-2.1,47-23.6,52.6-5.4,2.1,15.6-9,30.3-11.8,45.4,3.4,9.5,21.5,25.9,22.5,34.8.7,6.2-1.6,8.1-3.5,13.4-3.4,51.3,4.7,108.8,0,159.3-1.2,13.1-11.3,23.3-24.2,25.2-62.8-3.5-130.7,4.7-192.9,0-14.1-1.1-18.3-7.1-27.5-16.3-8.2-12.6-26.2-24.7-34.1-36.6-4.5-6.8-3.8-11.6,1-17.9l131.8-132.8c-3.4-6.5-3.2-11.8,1.7-17.4l32.1-24c3.3-10.6-2-39.2,5.5-47.2,1.7-1.8,4.1-2,5.6-3.9h7.9ZM254.9,90.5v19.6c0,5.1-8.6,11.6-12.3,14.6l26.4,26.3,6.7-7.8c6.3-5.5,19.3-2.9,27.5-4.5-2.8-5.9-11.4-13.4-12.3-19.7-1-7.1,5.3-14.5,5.5-21.8-7.4,1.6-13.9,6.7-21.8,5.5-6.3-.9-14-9.3-19.7-12.3ZM227.7,148.9l-137.6,137.3,17.9,18,138.6-136.3c1-1.3.1-1.8-.6-2.8-1.2-1.7-13.5-14-15.2-15.2s-1.6-1.3-3.2-.9ZM311.7,172.7c-16.3.5-17.3,24.6-2.5,26.6,21.6,2.8,20.8-27.1,2.5-26.6ZM268.1,199.5c-19.2,4.4-7.3,35.3,10.8,24.3,12.6-7.7,4.5-27.7-10.8-24.3ZM309.6,212.9c-16.1,2.6-13.4,28.3,4.1,26.6s14.7-29.7-4.1-26.6Z"/><path d="M141.4,64.9c18.7-3,21.4,25,4.1,26.6s-20.2-24-4.1-26.6Z"/><path d="M202,78.4c18.7-3,21.4,25,4.1,26.6-17.5,1.7-20.2-24-4.1-26.6Z"/><path d="M161.6,105.3c18.7-3,21.4,25,4.1,26.6-17.5,1.7-20.2-24-4.1-26.6Z"/></svg>