<?xml version="1.0" encoding="UTF-8"?><svg id="a" xmlns="http://www.w3.org/2000/svg" viewBox="0 0 400 400"><path d="M339.9,344.6c-4.6,4.5-12.5,7.5-19,8H117.2c-13.2-1.5-23.3-14.4-32.1-23.3-10.6-10.8-36.2-34.9-37.7-49.1-1.3-11.7-1.3-39.9,0-51.6s3.6-8.5,3.8-11.4-3.4-8.7-3.8-13.7c-1.1-12.1-1.3-38.5,0-50.4.5-4.5,3.6-8.5,3.8-11.4s-3.3-8-3.8-12.5c-1.3-11.6-1.3-39.9,0-51.6,1.5-14.3,14.1-25.8,28.3-27.1s38.5-1.3,50.4,0,8.5,3.6,11.4,3.8,8.7-3.4,13.7-3.8c12.1-1.1,38.5-1.3,50.4,0,4.5.5,8.5,3.6,11.4,3.8s8-3.3,12.5-3.8c11.3-1.3,41.6-1.3,52.7.1s7,1.9,9.4,3.2c7.7,4,48.8,42.9,54.9,50.8s6.6,11,6.9,17v202.6c-.5,6.9-4.4,15.5-9.3,20.2ZM122.8,80.9h-45.3v45.3h45.3v-45.3ZM198.3,80.9h-45.3v45.3h45.3v-45.3ZM273.7,80.9h-45.3v45.3h45.3v-45.3ZM122.8,156.4h-45.3v45.3h45.3v-45.3ZM198.3,156.4h-45.3v45.3h45.3v-45.3ZM273.7,156.4h-45.3v45.3h45.3v-45.3ZM122.8,231.9h-45.3v45.3h45.3v-45.3ZM198.3,231.9h-45.3v45.3h43.4l1.9-1.9v-43.4ZM273.7,231.9h-45.3v45.3h45.3v-45.3Z"/></svg>