<?xml version="1.0" encoding="UTF-8"?><svg id="a" xmlns="http://www.w3.org/2000/svg" viewBox="0 0 400 400"><path d="M363.7,200.8c0-3.1-1.4-5.8-3.5-7.7-.3-.4-.6-.7-1-1-.3-.4-.6-.7-1-1-.3-.4-.6-.7-1-1-.3-.4-.6-.7-1-1-.3-.4-.6-.7-1-1-.3-.4-.6-.7-1-1-.3-.4-.6-.7-1-1-.3-.4-.6-.7-1-1-.3-.4-.6-.7-1-1-.3-.4-.6-.7-1-1-.3-.4-.6-.7-1-1-.3-.4-.6-.7-1-1-.3-.4-.6-.7-1-1-.3-.4-.6-.7-1-1-.3-.4-.6-.7-1-1-.3-.4-.6-.7-1-1-.3-.4-.6-.7-1-1-.3-.4-.6-.7-1-1-.3-.4-.6-.7-1-1-.3-.4-.6-.7-1-1-.3-.4-.6-.7-1-1-.3-.4-.6-.7-1-1-.3-.4-.6-.7-1-1-.3-.4-.6-.7-1-1-.3-.4-.6-.7-1-1-.3-.4-.6-.7-1-1-.3-.4-.6-.7-1-1-.3-.4-.6-.7-1-1-.3-.4-.6-.7-1-1-.3-.4-.6-.7-1-1-.3-.4-.6-.7-1-1-.3-.4-.6-.7-1-1-.1-.2-.3-.3-.5-.5l4.4-7.8c1.4-2.4,1.8-5.2,1.1-7.9-.4-2-1.5-3.8-3.1-5.2-.3-.4-.6-.7-1-1-.3-.4-.6-.7-1-1-.3-.4-.6-.7-1-1-.3-.4-.6-.7-1-1-.3-.4-.6-.7-1-1-.3-.4-.6-.7-1-1-.3-.4-.6-.7-1-1-.3-.4-.6-.7-1-1-.3-.4-.6-.7-1-1-.3-.4-.6-.7-1-1-.3-.4-.6-.7-1-1-.3-.4-.6-.7-1-1-.3-.4-.6-.7-1-1-.3-.4-.6-.7-1-1-.3-.4-.6-.7-1-1-.3-.4-.6-.7-1-1-.3-.4-.6-.7-1-1-.3-.4-.6-.7-1-1-.3-.4-.6-.7-1-1-.3-.4-.6-.7-1-1-.3-.4-.6-.7-1-1-.3-.4-.6-.7-1-1-.3-.4-.6-.7-1-1-.3-.4-.6-.7-1-1-.3-.4-.6-.7-1-1-.3-.4-.6-.7-1-1-.3-.4-.6-.7-1-1-.3-.4-.6-.7-1-1-.3-.4-.6-.7-1-1-.3-.4-.6-.7-1-1-.3-.4-.6-.7-1-1-.3-.4-.6-.7-1-1-.3-.4-.6-.7-1-1-.3-.4-.6-.7-1-1-.3-.4-.6-.7-1-1-.3-.4-.6-.7-1-1-.3-.4-.6-.7-1-1-.3-.4-.6-.7-1-1-.3-.4-.6-.7-1-1-.3-.4-.6-.7-1-1-.3-.4-.6-.7-1-1-.3-.4-.6-.7-1-1-.3-.4-.6-.7-1-1-.3-.4-.6-.7-1-1-.3-.4-.6-.7-1-1-.3-.4-.6-.7-1-1-.3-.4-.6-.7-1-1-.3-.4-.6-.7-1-1-.3-.4-.6-.7-1-1-.3-.4-.6-.7-1-1-.3-.4-.6-.7-1-1-.3-.4-.6-.7-1-1-.3-.4-.6-.7-1-1-.3-.4-.6-.7-1-1-.3-.4-.6-.7-1-1-.3-.4-.6-.7-1-1-.3-.4-.6-.7-1-1-.3-.4-.6-.7-1-1-.3-.4-.6-.7-1-1-.7-.8-1.5-1.5-2.4-2l-61.2-35.2s0,0,0,0c-4.9-2.9-11.2-1.2-14,3.7l-15.1,26.7c0,0-.2-.1-.2-.2-.3-.4-.6-.7-1-1-.3-.4-.6-.7-1-1-.3-.4-.6-.7-1-1-.3-.4-.6-.7-1-1-.3-.4-.6-.7-1-1-.3-.4-.6-.7-1-1-.3-.4-.6-.7-1-1-.3-.4-.6-.7-1-1-.3-.4-.6-.7-1-1-.3-.4-.6-.7-1-1-.3-.4-.6-.7-1-1-.3-.4-.6-.7-1-1-.3-.4-.6-.7-1-1-.3-.4-.6-.7-1-1-.3-.4-.6-.7-1-1-.3-.4-.6-.7-1-1-.3-.4-.6-.7-1-1-.3-.4-.6-.7-1-1-.3-.4-.6-.7-1-1-.3-.4-.6-.7-1-1-.3-.4-.6-.7-1-1-.3-.4-.6-.7-1-1-.3-.4-.6-.7-1-1-.3-.4-.6-.7-1-1-.3-.4-.6-.7-1-1-.3-.4-.6-.7-1-1-.3-.4-.6-.7-1-1-.3-.4-.6-.7-1-1-.3-.4-.6-.7-1-1-3.2-3.6-8.6-4.7-12.9-2.1l-61.2,35.2c-2.3,1.3-3.9,3.6-4.5,6.2-.7,2.7-.3,5.5,1.1,7.9l21.3,37.8h-42.7c-5.7,0-10.2,4.6-10.2,10.2v70.8c0,.1,0,.3,0,.4,0,2.9,1.4,5.5,3.4,7.3.3.4.6.7,1,1,.3.4.6.7,1,1,.3.4.6.7,1,1,.3.4.6.7,1,1,.3.4.6.7,1,1,.3.4.6.7,1,1,.3.4.6.7,1,1,.3.4.6.7,1,1,.3.4.6.7,1,1,.3.4.6.7,1,1,.3.4.6.7,1,1,.3.4.6.7,1,1,.3.4.6.7,1,1,.3.4.6.7,1,1,.3.4.6.7,1,1,.3.4.6.7,1,1,.3.4.6.7,1,1,.3.4.6.7,1,1,.3.4.6.7,1,1,.3.4.6.7,1,1,.3.4.6.7,1,1,.3.4.6.7,1,1,.3.4.6.7,1,1,.3.4.6.7,1,1,.3.4.6.7,1,1,.3.4.6.7,1,1,.3.4.6.7,1,1,.3.4.6.7,1,1,.3.4.6.7,1,1,.3.4.6.7,1,1,.3.4.6.7,1,1,.3.4.6.7,1,1,.2.2.3.4.5.6l-4.4,7.7c-2.5,4.4-1.6,9.8,2.1,13.1.3.4.6.7,1,1,.3.4.6.7,1,1,.3.4.6.7,1,1,.3.4.6.7,1,1,.3.4.6.7,1,1,.3.4.6.7,1,1,.3.4.6.7,1,1,.3.4.6.7,1,1,.3.4.6.7,1,1,.3.4.6.7,1,1,.3.4.6.7,1,1,.3.4.6.7,1,1,.3.4.6.7,1,1,.3.4.6.7,1,1,.3.4.6.7,1,1,.3.4.6.7,1,1,.3.4.6.7,1,1,.3.4.6.7,1,1,.3.4.6.7,1,1,.3.4.6.7,1,1,.3.4.6.7,1,1,.3.4.6.7,1,1,.3.4.6.7,1,1,.3.4.6.7,1,1,.3.4.6.7,1,1,.3.4.6.7,1,1,.3.4.6.7,1,1,.3.4.6.7,1,1,.3.4.6.7,1,1,.3.4.6.7,1,1,.3.4.6.7,1,1,.3.4.6.7,1,1,.3.4.6.7,1,1,.3.4.6.7,1,1,.3.4.6.7,1,1,.3.4.6.7,1,1,.3.4.6.7,1,1,.3.4.6.7,1,1,.3.4.6.7,1,1,.3.4.6.7,1,1,.3.4.6.7,1,1,.3.4.6.7,1,1,.3.4.6.7,1,1,.3.4.6.7,1,1,.3.4.6.7,1,1,.3.4.6.7,1,1,.3.4.6.7,1,1,.3.4.6.7,1,1,.3.4.6.7,1,1,.3.4.6.7,1,1,.3.4.6.7,1,1,.3.4.6.7,1,1,.3.4.6.7,1,1,.3.4.6.7,1,1,.3.4.6.7,1,1,.3.4.6.7,1,1,.3.4.6.7,1,1,.3.4.6.7,1,1,.3.4.6.7,1,1,.7.8,1.4,1.4,2.3,2l61.7,33.9c1.7.8,3.5,1.2,5.3,1.3h2.3c2.7-.6,5-2.3,6.4-4.7l15-26.6c.2.2.3.3.5.5.3.4.6.7,1,1,.3.4.6.7,1,1,.3.4.6.7,1,1,.3.4.6.7,1,1,.3.4.6.7,1,1,.3.4.6.7,1,1,.3.4.6.7,1,1,.3.4.6.7,1,1,.3.4.6.7,1,1,.3.4.6.7,1,1,.3.4.6.7,1,1,.3.4.6.7,1,1,.3.4.6.7,1,1,.3.4.6.7,1,1,.3.4.6.7,1,1,.3.4.6.7,1,1,.3.4.6.7,1,1,.3.4.6.7,1,1,.3.4.6.7,1,1,.3.4.6.7,1,1,.3.4.6.7,1,1,.3.4.6.7,1,1,.3.4.6.7,1,1,.3.4.6.7,1,1,.3.4.6.7,1,1,.3.4.6.7,1,1,.3.4.6.7,1,1,.3.4.6.7,1,1,.3.4.6.7,1,1,3.3,3.7,8.9,4.7,13.3,2l61.2-35.4c2.2-1.4,3.8-3.6,4.5-6.2.7-2.7.4-5.5-1.1-7.9l-21.3-37.8h42.7c.1,0,.3,0,.4,0,5.5-.1,9.9-4.7,9.8-10.2l-1.1-69.8ZM298.6,214.3c-.2.2-.3.2-.4.2l.2,9.5-.2-9.5h-59.1s29.3,51.9,29.3,51.9v.2c.2.1.2.3.2.4v.3c-.1.2-.2.3-.3.4l-61,35.3h-.2c-.2.3-.5.3-.7.3s-.5-.2-.6-.4c0,0,0,0,0-.1l-.2-.5-29.9-52.9-29.5,52.3h-.4c-.4,0-.8-.1-1.2-.3l-61-33.5c-.3-.3-.4-.8-.2-1.2l29.4-52h-59.1c0,0-.2,0-.4-.1-.2-.2-.2-.3-.2-.4v-71c0-.4.3-.7.7-.7h58.9l-29.3-51.9v-.2c-.2-.2-.2-.4-.2-.6v-.2s0-.3,0-.3l61.3-35.2c0,0,.3-.2.6,0,.3,0,.4.3.5.4l30,53.2,29.6-52.3c0,0,.2-.2.4-.3.3,0,.5,0,.5,0l61.3,35.2v.5c.2.2.1.4,0,.6l-29.4,52.1h58.9c.4,0,.7.3.7.7l1.1,70c0,0,0,.2-.1.4Z"/></svg>