<?xml version="1.0" encoding="UTF-8"?><svg id="a" xmlns="http://www.w3.org/2000/svg" viewBox="0 0 400 400"><path d="M297.2,296.9c-.2-.2-.3-.4-.5-.5-.2-.2-.3-.4-.5-.5-.2-.2-.3-.4-.5-.5-.2-.2-.3-.4-.5-.5-.2-.2-.3-.4-.5-.5-.2-.2-.3-.4-.5-.5-.2-.2-.3-.4-.5-.5-.2-.2-.3-.4-.5-.5-.2-.2-.3-.4-.5-.5-.2-.2-.3-.4-.5-.5-.2-.2-.3-.4-.5-.5-.1-.1-.2-.2-.3-.3,20.2-19.6,21.4-51.8,2.3-72.7-.7-.7-1.3-1.4-2-2.1-.2-.2-.3-.4-.5-.5-.2-.2-.3-.4-.5-.5-.2-.2-.3-.4-.5-.5-.2-.2-.3-.4-.5-.5-.2-.2-.3-.4-.5-.5-.2-.2-.3-.4-.5-.5-.2-.2-.3-.4-.5-.5-.2-.2-.3-.4-.5-.5-.2-.2-.3-.4-.5-.5-.2-.2-.3-.4-.5-.5-.2-.2-.3-.4-.5-.5-.2-.2-.3-.4-.5-.5-.2-.2-.3-.4-.5-.5-.2-.2-.3-.4-.5-.5-.2-.2-.3-.4-.5-.5-.2-.2-.3-.4-.5-.5-.2-.2-.3-.4-.5-.5-.2-.2-.3-.4-.5-.5-.2-.2-.3-.4-.5-.5-.2-.2-.3-.4-.5-.5-.2-.2-.3-.4-.5-.5-.2-.2-.3-.4-.5-.5-.2-.2-.3-.4-.5-.5-.2-.2-.3-.4-.5-.5-.2-.2-.3-.4-.5-.5-.2-.2-.3-.4-.5-.5-.2-.2-.3-.4-.5-.5-.2-.2-.3-.4-.5-.5-.2-.2-.3-.4-.5-.5-.2-.2-.3-.4-.5-.5-.2-.2-.3-.4-.5-.5-.2-.2-.3-.4-.5-.5-.2-.2-.3-.4-.5-.5-.2-.2-.3-.4-.5-.5-.2-.2-.3-.4-.5-.5-.2-.2-.3-.4-.5-.5-.1-.1-.3-.3-.4-.4,11.1-4.8,19.6-12.8,23.4-22.8.7-1.9.7-4.1,0-6-2.3-5.4-5.7-10.1-9.8-14.1-.2-.2-.3-.4-.5-.5-.2-.2-.3-.4-.5-.5-.2-.2-.3-.4-.5-.5-.2-.2-.3-.4-.5-.5-.2-.2-.3-.4-.5-.5-.2-.2-.3-.4-.5-.5-.2-.2-.3-.4-.5-.5-.2-.2-.3-.4-.5-.5-.2-.2-.3-.4-.5-.5-.2-.2-.3-.4-.5-.5-.2-.2-.3-.4-.5-.5-.2-.2-.3-.4-.5-.5-.2-.2-.3-.4-.5-.5-.2-.2-.3-.4-.5-.5-.2-.2-.3-.4-.5-.5-.2-.2-.3-.4-.5-.5-.2-.2-.3-.4-.5-.5-.2-.2-.3-.4-.5-.5-.2-.2-.3-.4-.5-.5-.2-.2-.3-.4-.5-.5-.2-.2-.3-.4-.5-.5-.2-.2-.3-.4-.5-.5-.2-.2-.3-.4-.5-.5-.2-.2-.3-.4-.5-.5-.1-.1-.3-.3-.4-.4,3.4-9.7,3.2-20.3-.7-29.9-.5-1-1.2-2-2-2.7-.2-.2-.3-.4-.5-.5-.2-.2-.3-.4-.5-.5-.2-.2-.3-.4-.5-.5-.2-.2-.3-.4-.5-.5-.2-.2-.3-.4-.5-.5-.2-.2-.3-.4-.5-.5-.2-.2-.3-.4-.5-.5-.2-.2-.3-.4-.5-.5-.2-.2-.3-.4-.5-.5-.2-.2-.3-.4-.5-.5-.2-.2-.3-.4-.5-.5-.2-.2-.3-.4-.5-.5-.2-.2-.3-.4-.5-.5-.2-.2-.3-.4-.5-.5-.2-.2-.3-.4-.5-.5-.2-.2-.3-.4-.5-.5-.2-.2-.3-.4-.5-.5-.2-.2-.3-.4-.5-.5-.2-.2-.3-.4-.5-.5-.2-.2-.3-.4-.5-.5-.2-.2-.3-.4-.5-.5-.2-.2-.3-.4-.5-.5-.2-.2-.3-.4-.5-.5-.2-.2-.3-.4-.5-.5-.2-.2-.3-.4-.5-.5-.2-.2-.3-.4-.5-.5-.2-.2-.3-.4-.5-.5-.2-.2-.3-.4-.5-.5-.2-.2-.3-.4-.5-.5-.2-.2-.3-.4-.5-.5-.2-.2-.3-.4-.5-.5-.2-.2-.3-.4-.5-.5-.2-.2-.3-.4-.5-.5-.2-.2-.3-.4-.5-.5-.2-.2-.3-.4-.5-.5-.2-.2-.3-.4-.5-.5-.2-.2-.3-.4-.5-.5-.2-.2-.3-.4-.5-.5-.2-.2-.3-.4-.5-.5-.2-.2-.3-.4-.5-.5-.2-.2-.3-.4-.5-.5-.2-.2-.3-.4-.5-.5-.2-.2-.3-.4-.5-.5-.2-.2-.3-.4-.5-.5-.2-.2-.3-.4-.5-.5-.2-.2-.3-.4-.5-.5-.2-.2-.3-.4-.5-.5-.2-.2-.3-.4-.5-.5-.2-.2-.3-.4-.5-.5-.2-.2-.3-.4-.5-.5-.2-.2-.3-.4-.5-.5-.2-.2-.3-.4-.5-.5-.2-.2-.3-.4-.5-.5,0,0,0,0-.1-.1-.3-.8-.5-1.5-.8-2.3-.8-1.9-2.3-3.3-4.2-4.2-10.1-4-21.4-3.9-31.5,0,0,0,0,0,0,0-.2-.2-.3-.4-.5-.5-.2-.2-.3-.4-.5-.5-.2-.2-.3-.4-.5-.5-.2-.2-.3-.4-.5-.5-.2-.2-.3-.4-.5-.5-.2-.2-.3-.4-.5-.5-.2-.2-.3-.4-.5-.5-.2-.2-.3-.4-.5-.5-.2-.2-.3-.4-.5-.5-.2-.2-.3-.4-.5-.5-.2-.2-.3-.4-.5-.5-.2-.2-.3-.4-.5-.5,0,0,0,0-.1-.1-4.6-8.1-11.8-14.6-20.6-18.4-1.9-.7-4.1-.7-6,0-9.4,4-16.9,11.2-21.4,20.2-1,1.8-1.9,3.7-2.6,5.7-10.7-5.1-23.1-5.6-34.2-1.3-1.9.8-3.4,2.3-4.2,4.2,0,0,0,.2,0,.2-.3.4-.5.8-.7,1.2-4.2,10.6-4.1,22.4.5,32.9-9.5,3.9-17.3,11-21.9,20.1-.7,1.3-1.4,2.6-2,4-.7,1.9-.7,4.1,0,6,1.9,4.9,4.9,9.3,8.7,13.1.2.2.3.4.5.5.2.2.3.4.5.5.2.2.3.4.5.5.2.2.3.4.5.5.2.2.3.4.5.5.2.2.3.4.5.5.2.2.3.4.5.5.2.2.3.4.5.5.2.2.3.4.5.5.2.2.3.4.5.5.2.2.3.4.5.5.2.2.3.4.5.5.2.2.3.4.5.5.2.2.3.4.5.5.2.2.3.4.5.5.2.2.3.4.5.5.2.2.3.4.5.5.2.2.3.4.5.5.2.2.3.4.5.5.2.2.3.4.5.5.2.2.3.4.5.5.2.2.3.4.5.5.2.2.3.4.5.5.1.1.3.3.4.4h-.7c-11.9,0-22.3,6.9-27.2,17-2.5,4.4-3.9,9.4-3.9,14.8,0,8.4,3.4,16.2,9.3,21.8.2.2.3.4.5.5.2.2.3.4.5.5.2.2.3.4.5.5.2.2.3.4.5.5.2.2.3.4.5.5.2.2.3.4.5.5.2.2.3.4.5.5.2.2.3.4.5.5.2.2.3.4.5.5.2.2.3.4.5.5.2.2.3.4.5.5.2.2.3.3.5.5-4,4-7.2,8.6-9.6,13.4-10.1,18.9-7.9,42.8,7.2,59.7.7.8,1.4,1.5,2.2,2.3.2.2.3.4.5.5.2.2.3.4.5.5.2.2.3.4.5.5.2.2.3.4.5.5.2.2.3.4.5.5.2.2.3.4.5.5.2.2.3.4.5.5.2.2.3.4.5.5.2.2.3.4.5.5.2.2.3.4.5.5.2.2.3.4.5.5.2.2.3.4.5.5.2.2.3.4.5.5.2.2.3.4.5.5.2.2.3.4.5.5.2.2.3.4.5.5.2.2.3.4.5.5.2.2.3.4.5.5.2.2.3.4.5.5.2.2.3.4.5.5.2.2.3.4.5.5.2.2.3.4.5.5.2.2.3.4.5.5.2.2.3.4.5.5.2.2.3.4.5.5.2.2.3.4.5.5.2.2.3.4.5.5.2.2.3.4.5.5.2.2.3.4.5.5.2.2.3.4.5.5.2.2.3.4.5.5.2.2.3.4.5.5.2.2.3.4.5.5.2.2.3.4.5.5.2.2.3.4.5.5.2.2.3.4.5.5.2.2.3.4.5.5.2.2.3.4.5.5.2.2.3.4.5.5.2.2.3.4.5.5.2.2.3.4.5.5.2.2.3.4.5.5.2.2.3.4.5.5.2.2.3.4.5.5.2.2.3.4.5.5.2.2.3.4.5.5.2.2.3.4.5.5.2.2.3.4.5.5.2.2.3.4.5.5.2.2.3.4.5.5.2.2.3.4.5.5.2.2.3.4.5.5.2.2.3.4.5.5.2.2.3.4.5.5.2.2.3.4.5.5.2.2.3.4.5.5.2.2.3.4.5.5.2.2.3.4.5.5.2.2.3.4.5.5,9.9,10,23.4,15.7,37.6,15.6h117.3c16.8,0,30.4-13.6,30.3-30.4,0-8.4-3.5-16.2-9.3-21.8-.2-.2-.3-.4-.5-.5ZM246,300h-117.3c-19.7,0-35.6-15.9-35.6-35.6s15.9-35.6,35.6-35.6h102.6c4.6,0,8.4-3.8,8.4-8.4s-3.8-8.4-8.4-8.4h-124.6c-7.5,0-13.6-6.1-13.6-13.6,0-7.5,6-13.6,13.5-13.6,0,0,0,0,0,0h117.3c19.7,0,35.6,15.9,35.6,35.6s-15.9,35.6-35.6,35.6h-102.6c-4.6,0-8.4,3.8-8.4,8.4s3.8,8.4,8.4,8.4h124.6c7.5,0,13.6,6.1,13.6,13.6s-6.1,13.6-13.6,13.6ZM104,138.1c3.8-5.5,9.4-9.6,15.8-11.5,1.6,1.9,3.1,3.7,4.9,5.5,7.8,8,17.7,13.7,28.6,16.4-5.7,2.5-11.9,3.7-18.1,3.7-13.4,0-26-5.8-31.2-14.1ZM175.8,66.4c8.4,5.2,14.1,17.6,14.1,31.2s-5.8,26-14.1,31.2c-8.4-5.2-14.1-17.6-14.1-31.2s5.8-26.1,14.1-31.2ZM247.5,138.1c-5.2,8.4-17.6,14.1-31.2,14.1-6.2,0-12.4-1.3-18.1-3.7,10.8-2.7,20.6-8.4,28.4-16.4,1.8-1.8,3.4-3.6,4.9-5.5,6.5,1.9,12.1,6,16,11.5ZM206.6,97.6c0-1.9,0-3.8-.3-5.7,6.2-3.6,13.5-4.9,20.7-3.7,2.2,9.6-2.5,22.5-12.1,32.1-5.1,5.2-11.4,9-18.3,11.2,6.7-10,10.2-21.8,10-33.9ZM154.9,131.4c-6.9-2.2-13.2-6-18.3-11.2-9.6-9.6-14.3-22.5-12.1-32,7.1-1.2,14.4.1,20.7,3.7,0,1.9-.3,3.7-.3,5.7-.2,12,3.3,23.8,10,33.9Z"/></svg>