<?xml version="1.0" encoding="UTF-8"?><svg id="a" xmlns="http://www.w3.org/2000/svg" viewBox="0 0 400 400"><path d="M357.7,121.6h0c0-.1-.1-.1-.1-.1l-78.1-71.8h-.4c0-.1-215.7-.1-215.7-.1-4.4,0-8,3.5-8,7.9v228.7l1.6,1.3,78.3,72,1.3-1.3h213.1c4.4,0,8-3.5,8-7.9V121.8h0c0-.1,0-.2,0-.2ZM173.4,79.5h67.6c4.4,0,8,3.5,8,7.9v34h-75.6v-41.9ZM79.7,136.4h78.6v44.9h-78.6v-44.9ZM158.3,250.2h-70.6c-4.4,0-8-3.5-8-7.9v-43h78.6v50.9ZM158.3,121.5h-78.6v-34c0-4.4,4.7-7.9,9.1-7.9h69.5v41.9ZM248.9,242.3c0,4.4-3.6,7.9-8,7.9h-67.6v-50.9h75.6v43ZM248.9,181.4h-75.6v-44.9h75.6v44.9Z"/></svg>