<?xml version="1.0" encoding="UTF-8"?><svg id="a" xmlns="http://www.w3.org/2000/svg" viewBox="0 0 400 400"><path d="M64.3,59.1l243.7.5c1.6.3,2.7,1.3,3.9,2.2,4.4,3.1,28.1,31.3,31.2,36.4,2.3,3.8,3.7,7.3,4.3,11.7l.2,201.6c-1.3,14.9-12.8,26.3-27.7,27.7-55.4,5.1-118.5-3.9-174.7,0-10.8-1.2-17-8-23.9-15.4-18.9-20.3-46.7-52.7-62.7-75s-5.2-6-5.9-10.1l-.3-165.8c.3-6.5,5.7-12.7,12-13.9ZM288.5,88.3H81.9v132.8h44.3c-.3-7.8,5.4-13.5,13-14.7,28.7,1.5,60.1-2.4,88.5-.2,9.7.8,16.2,4.3,16.6,14.8h44.3V88.3Z"/><path d="M129.6,113.3c52-6.1,56.3,70.4,8.2,73.4-49.1,3.1-53.6-68.1-8.2-73.4ZM132,142.7c-8.1,2.4-5.4,17.5,5.6,14.3s5.4-17.5-5.6-14.3Z"/><path d="M225.5,113.3c52-6.1,56.3,70.4,8.2,73.4-49.1,3.1-53.6-68.1-8.2-73.4ZM227.9,142.7c-8.1,2.4-5.4,17.5,5.6,14.3s5.4-17.5-5.6-14.3Z"/></svg>